<?xml version="1.0" encoding="UTF-8"?>
<!DOCTYPE svg PUBLIC "-//W3C//DTD SVG 1.1//EN" "http://www.w3.org/Graphics/SVG/1.1/DTD/svg11.dtd">
<!-- Creator: CorelDRAW 2020 (64-Bit) -->
<svg xmlns="http://www.w3.org/2000/svg" xml:space="preserve" width="2570.58mm" height="627.828mm" version="1.1" style="shape-rendering:geometricPrecision; text-rendering:geometricPrecision; image-rendering:optimizeQuality; fill-rule:evenodd; clip-rule:evenodd"
viewBox="0 0 254724.59 62212.94"
 xmlns:xlink="http://www.w3.org/1999/xlink"
 xmlns:xodm="http://www.corel.com/coreldraw/odm/2003">
 <defs>
  <style type="text/css">
   <![CDATA[
    .str0 {stroke:#A2D9F7;stroke-width:247.73;stroke-miterlimit:22.9256}
    .fil0 {fill:none}
    .fil1 {fill:#A2D9F7;fill-rule:nonzero}
   ]]>
  </style>
 </defs>
 <g id="Слой_x0020_1">
  <metadata id="CorelCorpID_0Corel-Layer"/>
  <path class="fil0 str0" d="M28575.26 47536.18l3584.17 3623.22 0 -3131.14 -441.52 -0.42 -1.47 -497.32 240.7 0 2905.73 -2905.72 2905.72 2905.72 177.99 0 0 496.27 -520.35 0 0 11846.11 -12924.19 0 0 -8113.78 -11.52 0 4084.75 -4222.94zm-24427.52 12336.73l0 -4093.85 -274 0 0 -704.1 274 0 0 -2877.55 -129.4 113.17 -359.12 -410.52 5321.03 -4654.09 15.91 18.1 102.18 -127.83 2155.34 1722.4 -95.07 -99.04 6607.47 0 20.52 100.93 3557.79 -3112.09 1.67 1.78 1.57 -1.78 3979.62 3905.08 0 -2147.07 1535.84 0 0 -5009.76 3981.19 0 0 -629.04 629.87 0 0 629.04 4470.66 0 0 -629.04 629.77 0 0 629.04 5829.13 0 0 5033.83 -486.53 0 0 496.27 0 558.89 0 11287.22 2180.05 0 0 -1504.95 376.92 0 0 -6343.11 -726.2 327.82 0 -887.22 726.2 -327.92 0 884.91 7374.7 -3328.29 0 -887.32 -7374.7 3328.29 0 -2312.5 0 -104.69 0 -7340.16 2943.3 0 0 -3293.32 0.42 0 631.56 -1287.8 632.06 -1288.33 631.86 1288.33 631.55 1287.8 0.21 0 0 3293.32 2149.27 0 0 -608.41 -344.56 0 7283.93 -7283.94 7283.94 7283.94 -135.06 0 0 7769.42 2900.39 2420.23 2215.33 1646.08 0 -2116.29 7557.09 0 -2284.54 -2586.6 6455.34 -2038.71 737.71 4625.31 578.88 0 -768.91 -4688.65 12036.86 26.07 -434.29 4662.57 12826.51 0 0 7359.42 819.58 -553.76 11445.1 0 2261.51 1439.82 428.33 0 0 -12888.69 -218.72 -402.68 -459.84 -847.43 678.56 -18.01 0 -5582.46 -218.72 -402.78 -459.84 -847.54 678.56 -17.81 0 -22.4 232.11 0 0 -5680.88 -450.83 -830.27 -394.2 -726.09 -718.65 0 0 -778.97 1367.68 0 0 -849.85 359.85 0 0 -952.24 483.6 0c-62.4,-150.45 -1.88,-426.23 5.98,-854.76 2.51,-136.74 -135.38,-266.36 -135.38,-419.64 0,-205.94 -220.81,-349.17 -243.95,-541.19 -29.53,-245.31 142.91,-527.27 214.73,-651.24 63.97,-110.35 382.26,-81.87 462.04,-81.87 85.23,0 101.03,252.75 231.49,197.36 293.79,-124.7 169.82,-133.18 114.75,886.48 -15.18,284.68 -176.62,601.82 -229.18,800.85 -90.46,342.57 127.52,664 -117.06,663.89l-5.97 0.11 632.17 0 0 952.24 2199 0 0 -1059.24 -412.72 0 0 -1036.32 412.72 0 0 -7241.32 63.03 0 -646.2 -1130.86 706.72 0 0 -1952.95 -572.39 0 0 -594.39 869.53 0 191.91 -2856.62 0 -0.21 215.16 -733.41 0 -6.18 514.49 0 0.22 6.07 215.36 733.73 -4.08 0 217.98 2856.62 185.64 0 0 462.26 0 132.13 0 1952.95 227.51 0 289.6 -861.25 246.89 0c-251.07,-41.04 -442.57,-258.93 -442.57,-521.61 0,-292.22 236.62,-528.74 528.73,-528.74 292.11,0 528.74,236.51 528.74,528.74 0,262.68 -191.5,480.57 -442.57,521.61l249.6 0 287.08 861.25 316.83 0 0 -5183.56 -558.78 0 0 -1302.24 403.82 0 0 -378.38 701.07 0 0 378.38 453.46 0 0 -378.38 701.06 0 0 378.38 453.46 0 0 -378.38 700.96 0 0 378.38 453.56 0 0 -378.38 700.97 0 0 378.38 453.45 0 0 -378.38 701.07 0 0 378.38 453.46 0 0 -378.38 701.06 0 0 378.38 403.93 0 0 1302.24 -558.88 0 0 5183.56 297.14 0 289.6 -861.25 246.88 0c-251.07,-41.04 -442.57,-258.93 -442.57,-521.61 0,-292.22 236.62,-528.74 528.74,-528.74 292.1,0 528.73,236.51 528.73,528.74 0,262.68 -191.5,480.57 -442.57,521.61l249.6 0 287.09 861.25 246.99 0 0 -1952.95 0 -132.13 0 -462.26 185.84 0 218.09 -2856.62 -4.19 0 215.37 -733.73 0.32 -6.07 514.39 0 0 6.18 215.15 733.41 0 0.21 191.92 2856.62 869.53 0 0 594.39 -572.4 0 0 1952.95 706.83 0 -603.9 1130.86 20.73 0 0 7241.32 412.72 0 0 1036.32 -412.72 0 0 1059.24 2246.53 0 0 -952.24 632.07 0 -5.87 -0.11c-244.47,0.11 -26.6,-321.32 -117.06,-663.89 -52.56,-199.04 -214.11,-516.17 -229.29,-800.85 -55.08,-1019.66 -178.93,-1011.18 114.96,-886.48 130.36,55.38 146.16,-197.36 231.39,-197.36 79.78,0 398.06,-28.48 462.04,81.87 71.82,123.96 244.36,405.92 214.73,651.24 -23.14,192.02 -243.95,335.25 -243.95,541.19 0,153.28 -137.89,282.9 -135.38,419.64 7.86,428.53 68.37,704.31 5.87,854.76l483.71 0 0 952.24 312.11 0 0 849.85 1367.79 0 0 778.97 -676.78 0 -414.5 763.88 -464.34 855.19 -1.58 -2.73 0 5620.89 225.63 0 0 51.31 704.42 18.63 -464.14 855.5 -240.28 442.56 0 5533.99 704.42 18.64 -464.14 855.49 -240.28 442.57 0 13949.72 3957.01 0 0 -14027.3 -218.72 -402.68 -459.84 -847.43 678.56 -18.01 0 -5582.46 -218.72 -402.78 -459.84 -847.54 678.56 -17.81 0 -22.4 232.11 0 0 -5680.88 -450.83 -830.27 -394.09 -726.09 -718.77 0 0 -778.97 1367.69 0 0 -849.85 359.85 0 0 -952.24 483.6 0c-62.4,-150.45 -1.88,-426.23 5.97,-854.76 2.52,-136.74 -135.37,-266.36 -135.37,-419.64 0,-205.94 -220.81,-349.17 -243.96,-541.19 -29.52,-245.31 142.92,-527.27 214.74,-651.24 63.97,-110.35 382.26,-81.87 462.04,-81.87 85.23,0 101.03,252.75 231.49,197.36 293.79,-124.7 169.92,-133.18 114.86,886.48 -15.29,284.68 -176.73,601.82 -229.4,800.85 -90.35,342.57 127.63,664 -116.95,663.89l-5.87 0.11 632.07 0 0 952.24 2199 0 0 -1059.24 -412.72 0 0 -1036.32 412.72 0 0 -7241.32 63.03 0 -646.2 -1130.86 706.61 0 0 -1952.95 -572.28 0 0 -594.39 869.63 0 191.81 -2856.62 0 -0.21 215.16 -733.41 0 -6.18 514.49 0 0.21 6.07 215.37 733.73 -4.08 0 217.98 2856.62 185.74 0 0 462.26 0 132.13 0 1952.95 227.41 0 289.6 -861.25 246.88 0c-251.06,-41.04 -442.67,-258.93 -442.67,-521.61 0,-292.22 236.72,-528.74 528.95,-528.74 292.01,0 528.73,236.51 528.73,528.74 0,262.68 -191.6,480.57 -442.67,521.61l249.6 0 287.08 861.25 316.82 0 0 -5183.56 -558.77 0 0 -1302.24 403.82 0 0 -378.38 700.96 0 0 378.38 453.56 0 0 -378.38 700.97 0 0 378.38 453.56 0 0 -378.38 700.96 0 0 378.38 453.56 0 0 -378.38 700.96 0 0 378.38 453.46 0 0 -378.38 701.07 0 0 378.38 453.45 0 0 -378.38 701.07 0 0 378.38 403.83 0 0 1302.24 -558.78 0 0 5183.56 297.14 0 289.6 -861.25 246.88 0c-251.07,-41.04 -442.67,-258.93 -442.67,-521.61 0,-292.22 236.72,-528.74 528.94,-528.74 292.01,0 528.74,236.51 528.74,528.74 0,262.68 -191.61,480.57 -442.68,521.61l249.6 0 287.09 861.25 247.09 0 0 -1952.95 0 -132.13 0 -462.26 185.74 0 217.98 -2856.62 -4.08 0 215.26 -733.73 0.32 -6.07 514.6 0 0 6.18 215.05 733.41 0 0.21 191.91 2856.62 869.54 0 0 594.39 -572.4 0 0 1952.95 706.83 0 -603.91 1130.86 20.73 0 0 7241.32 412.73 0 0 1036.32 -412.73 0 0 1059.24 2246.53 0 0 -952.24 632.07 0 -5.86 -0.11c-244.58,0.11 -26.6,-321.32 -117.06,-663.89 -52.56,-199.04 -214,-516.17 -229.29,-800.85 -55.08,-1019.66 -178.93,-1011.18 114.86,-886.48 130.46,55.38 146.26,-197.36 231.49,-197.36 79.78,0 398.06,-28.48 462.04,81.87 71.92,123.96 244.26,405.92 214.73,651.24 -23.24,192.02 -243.95,335.25 -243.95,541.19 0,153.28 -137.89,282.9 -135.38,419.64 7.86,428.53 68.37,704.31 5.97,854.76l483.61 0 0 952.24 312.11 0 0 849.85 1367.79 0 0 778.97 -676.78 0 -414.5 763.88 -464.34 855.19 -1.58 -2.73 0 5620.89 225.63 0 0 51.31 704.52 18.63 -464.24 855.5 -240.28 442.56 0 5533.99 704.52 18.64 -464.24 855.49 -240.28 442.57 0 13949.72 929.63 0 0 -9894.93c10677.97,-3420.52 24158.53,-4473.07 41724.25,-2073.46l0 11968.39 737.3 0 -77.16 -11430.56 997.47 0c664.21,0 2178.27,770.48 1901.23,1373.66 -107.73,234.74 -215.88,408.01 -663.06,642.85l184.9 9414.05 3648.05 0c43.23,-82.41 137.47,-202.5 300.17,-373.98 4.18,-4.4 476.9,-267.09 480.68,-267.72 -50.88,-122.82 -1092.86,183.43 -1602.01,37.27 -1349.16,-387.49 -508.31,194.75 -2058.91,156.84 -106.9,-2.62 -391.16,456.28 -305,-713.73 5.03,-68.47 155.06,-13.82 210.24,-13.82l239.24 -48.06c195.89,-167.1 1184.46,-352.52 1319.73,-587.47 262.79,-457.22 -297.25,-374.93 -297.25,-1010.24 0,-129.31 952.98,-1627.14 1068.99,-1717.07 424.03,-328.97 540.24,-1125.2 252.74,-1397.84 -320.27,-303.84 513.14,-544.97 478.9,-1206.14 -63.77,-1230.32 21.88,-603.59 343.31,-1077.99 378.18,-558.04 403.93,105.75 548.1,-116.63 168.47,-260.07 -118.62,-251.17 394.19,-898.85 97.06,-122.6 771.12,-489.57 855.4,-519.41 1181.64,-417.74 672.8,-587.04 1165.93,-1161.53 396.4,-461.72 716.25,-1480.24 907.22,-1598.76 87.32,-54.13 600.77,-1399.52 185.01,-1484.53 -178.51,-36.55 -59.57,-659.19 54.87,-793.52 412.93,-484.75 -283.42,-253.89 -355.15,-20.2 -106.79,348.02 -663.06,467.49 -475.96,937.9 113.92,286.04 -38.94,610.5 -38.94,981.03 0,1241.74 -413.56,1237.75 -434.4,1476.15 -91.61,1047.1 -497.32,525.8 -703.89,904.71 -122.08,223.63 -506.54,122.39 -506.54,-196.42 0,-442.35 -141.55,-464.86 -138.51,-535.43 9.42,-219.66 -256.73,-985.85 -363.62,-1188.44 -192.55,-365.5 43.97,-909.31 173.17,-925.13 549.25,-67.42 403.3,-26.8 571.34,-517.95 -253.37,-475.44 -524.02,61.04 -948.05,210.34 -205.84,72.45 -261.54,412.62 -575.75,499.1 -102.18,28.16 -310.54,740.85 -277.03,986.9 20.52,150.76 -219.98,93.7 -226.56,542.65 -3.36,242.7 58,644.22 300.27,754.36 124.91,56.64 1376.18,981.14 292.85,934.97 -436.91,-18.64 -520.67,58.95 -982.39,-77.69 -152.97,-45.33 -549.77,-37.48 -596.06,96.43 -449.99,1300.05 730.81,644.74 535.23,1399.41 -580.45,100.62 48.68,758.24 -431.36,815.29 -136,16.12 -266.67,305.1 -50.47,295.78 226.78,-9.74 103.23,817.8 -215.16,829.63 -239.97,8.8 12.25,934.55 -198.93,1324.77 -105.33,194.64 105.64,466.54 -204.69,810.79 -53.92,59.67 -36.96,212.64 -109.93,237.87 -160.82,918.22 -363.09,55.91 -536.69,1073.49 -0.94,5.65 -133.8,65.64 -171.71,416.91 -43.44,403.3 -1665.65,128.15 -363.51,-785.04 335.67,-235.36 690.91,-1022.7 690.91,-1413.65 0,-619.51 -78.42,-1102.37 -50.36,-1792.34 51.19,-1258.59 -458.48,-1610.38 -37.59,-3064.55 352.2,-430.94 317.23,-439 913.19,-581.19 91.29,-21.67 1000.09,-29.52 912.24,-141.55 -266.15,-338.6 10.78,-55.49 -346.35,-373.46 -94.13,-83.76 -113.6,-1273.15 54.44,-1510.71 244.9,-346.45 265.2,-531.03 632.18,-870.05 65.22,-60.41 642.23,-493.76 667.77,-566.52 -251.39,123.44 -426.34,-246.67 -165.64,-242.8 966.27,14.45 441.94,-322.48 197.89,-362.16 54.76,-98.42 -81.04,-185.84 -110.25,-333.05 -12.04,-60.82 85.12,-214.11 77.16,-252.84 -304.68,-6.49 -403.82,4.61 -141.24,-640.35l27.75 -157.57c-66.8,-141.03 -87.74,244.79 -171.08,-399.85 -83.34,-644.64 442.98,-1229.91 1333.14,-1217.45 312.11,4.4 611.76,16.55 832.47,187.94 273.27,212.12 433.45,615.74 433.45,969.31 0,127.73 -20.73,247.92 -65.12,367.49 12.26,25.96 81.15,463.19 79.16,488.42 341.12,175.06 2076.4,-395.66 2387.88,12.88 2.62,3.56 669.77,408.43 878.42,660.86 844.09,1020.93 1537.62,2476.46 1656.77,3782.79 97.79,1071.7 23.03,111.5 -91.09,1741.78 -11.83,169.19 -11.31,335.25 -34.55,848.38 -9.84,219.03 -78.63,967.1 18.74,1299.84 -70.04,-319.97 -887.85,7.22 -799.38,258.39 794.35,1226.97 969.73,-4.19 1637.6,910.04 544.86,745.67 571.97,171.61 609.67,1160.59 14.56,382.16 473.25,470 473.25,1938.83 0,255.78 -129.21,958.62 150.45,1043.64 146.26,386.23 244.68,1101.12 625.58,1317.01 0.73,0.43 42.93,34.66 99.25,86.38l0 -7968.14c-62.92,-99.89 -139.15,-213.07 -242.27,-299.55 -96.33,-80.72 -799.17,221.12 -842,-130.88 -40.09,-329.38 -263.21,-321.84 -693.94,-391.99 21.67,-71.09 -111.29,-139.99 423.72,-251.8 710.07,-148.46 1126.25,153.59 1354.49,82.82l0 -2460.13 0 -447.9 0 -4837.12 513.03 0 0 -5366.15 -388.75 0 0 -715.93 529.99 0c-2.93,-44.19 -4.72,-88.58 -4.72,-133.5 0,-967.21 710.81,-1768.58 1638.55,-1910.03l0 -2242.13 651.13 0 0 2253.02c896.22,167.72 1574.57,954.23 1574.57,1899.14 0,44.92 -1.77,89.31 -4.71,133.5l594.27 0 0 715.93 -388.85 0 0 4709.38 1915.05 0 2102.36 -2165.08 2203.92 -2269.46 2203.92 2269.46 2102.36 2165.08 1915.16 0 0 -4709.38 -388.86 0 0 -715.93 562.13 0c-3.03,-44.19 -4.82,-88.79 -4.82,-133.6 0,-956.01 694.79,-1749.94 1606.71,-1904.69l0 -2247.37 651.03 0 0 2247.37c911.93,154.75 1606.6,948.68 1606.6,1904.69 0,44.81 -1.77,89.41 -4.71,133.6l562.23 0 0 715.93 -388.85 0 0 5366.15 277.77 0 0 35.7 134.75 0 0 12511.26 0 3476.44c-153.07,0 -250.55,11.94 -453.56,0l-742.21 -71.09c-185.74,-30.78 -340.27,-73.7 -408.64,-135.38 -316.62,-284.88 -923.24,-267.29 -1039.25,-341.31 -695.94,-443.51 -447.9,-40.84 -1038.72,-275.78 0,-372.31 -1002.29,-839.58 -814.99,-1097.87 198.51,-273.68 -171.5,-316.82 -171.5,-981.34 -374.51,0 -1115.78,-990.46 -1337.85,-1076.73 -205.74,-79.89 -402.46,-817.6 -406.13,-819.07 -390.42,-146.26 -47.33,-333.88 -260.18,-432.72 -449.27,-208.57 -404.97,-410.95 -572.18,-521.93 -805.14,-534.39 -904.7,-2003.63 -1682.63,-2137.33 -315.14,-54.34 -800.63,-624 -659.39,-817.38 186.47,-255.26 202.8,-728.72 132.86,-1048.04 -8.17,-37.8 -32.15,-182.18 -104.91,-192.75 -276.09,-40.41 -323.52,-479.74 -1030.45,-672.8 -141.44,-38.64 -261.53,-77.79 -362.05,-116.85l-351.47 0c-353.99,476.8 -801.37,633.54 -902.72,1267.49 -17.8,112.45 -284.67,202.91 -285.41,369.69 -0.21,75.39 71.82,79.06 92.97,582.65 5.34,126.48 -99.78,699.92 95.07,735.72 838.43,154.12 411.47,350.22 928.06,509.26 335.24,103.23 -86.7,735.73 -86.7,1032.34 0,834.76 205.94,1080.08 514.71,1794.86 157.88,365.71 412.72,65.85 37.06,590.6 -76.22,106.28 99.15,400.79 -689.34,424.24 -373.89,11.21 41.35,223.43 -315.25,-250.86 -117.06,-155.89 -680.13,269.82 -834.14,-408.64 -102.82,-452.93 -289.07,-487.69 -118.83,-1066.36 164.9,-560.46 -662.22,-789.22 -1060.81,-1188.13 -500.47,-500.88 -1434.07,-1497.2 -2169.06,-1479.72 -2468.28,58.74 -788.49,-461.83 -1054.21,-868.06 79.89,-252.54 156.42,-43.98 -342.89,-375.24 -852.67,-565.59 -815.4,-597.83 -1923.64,-623.8 -776.24,-18.22 -493.76,515.75 -1085.74,488 -68.68,-3.25 -364.35,358.91 0,592.29 85.96,54.97 439.63,447.38 -126.06,447.38 -99.57,0 -304.78,-18.85 -515.44,-39.16l0 38.22 -624.21 0 9.52 590.71c70.89,68.26 532.2,31.51 724.42,8.9 180.71,-21.46 408.01,-25.66 666.42,96.01 212.43,100.09 752.05,-28.16 540.35,368.96 -132.13,247.51 275.15,118.1 577,513.55 188.15,246.46 353.16,-1014.64 864.19,123.55 9.42,21.35 600.98,210.55 601.5,123.86 5.33,-813.3 8.17,876.03 571.03,1230.64 632.28,398.38 -335.98,284.89 726.82,735.31 393.25,166.68 1974.21,2036.4 397.65,1467.57 -279.13,-100.72 -349.81,-666.72 -804.41,-694.68 -4.39,-0.21 -845.13,-563.39 -952.97,-150.35 -728.18,159.25 -333.88,-302.79 -1095.99,-139.98 -351.47,75.07 -420.47,34.65 -760.22,373.36 -235.47,235.05 13.29,1105.42 199.14,1463.38 144.27,277.87 387.49,890.27 617.51,870.58 0,223.95 -754.99,1065.42 -902.09,1340.25 -184.8,345.2 -75.17,-141.24 -278.82,436.49 -49.94,141.87 -157.99,298.92 -291.91,445.29l4368.06 0c35.07,-265.42 242.17,-496.48 -352.11,-1203.63 -877.69,-1044.58 230.44,-318.28 360.8,-318.28 592.7,0 838.54,486.43 1452.5,405.19 990.35,-130.98 556.06,-370.22 1873.27,-382.16 675.84,-6.17 560.88,-159.88 827.34,-210.23 795.09,-150.66 149.51,93.08 802.62,-226.77 789.23,-386.45 88.47,-757.19 88.47,-1325.82 0,-503.39 850.05,-201.34 995.38,-119.98 414.82,232.33 1561.8,187 2229.68,401 600.45,192.34 1658.12,108.67 1591.12,604.64 -273.17,2026.67 -696.67,1358.37 1041.65,1625.24 940.52,144.49 1322.87,-225.73 1844.07,212.23 84.39,70.88 852.88,176.21 1045.95,538.58l4489.5 0 0 2216.17 -252547.6 0 0 -2216.17 2094.62 0zm501.2 -8113.78l203.01 0 0 3315.83 8151.26 0 0 704.1 -8151.26 0 0 4093.85 8852.75 0 0 -7556.36 0 -184.91 689.13 0 -270.64 -282.17 -5005.16 -3999.62 -4469.09 3909.26zm58749.32 -22796.71l4957.61 0 0 6633.75 -4957.61 0 0 -6633.75zm5106.92 -3658.19l526.54 0 0 1714.14 -526.54 0 0 -1714.14zm-1119.97 0l526.54 0 0 1714.14 -526.54 0 0 -1714.14zm-1119.96 0l526.53 0 0 1714.14 -526.53 0 0 -1714.14zm-1119.97 0l526.54 0 0 1714.14 -526.54 0 0 -1714.14zm-1119.97 0l526.54 0 0 1714.14 -526.54 0 0 -1714.14zm-1119.96 0l526.53 0 0 1714.14 -526.53 0 0 -1714.14zm178562.33 13811.2l1474.58 1518.56 1474.9 1518.77 -2949.49 0 -2949.49 0 1474.9 -1518.77 1474.58 -1518.56zm8396.57 4978.67c459,0 831.1,372.1 831.1,831 0,458.9 -372.1,831 -831.1,831 -458.69,0 -830.9,-372.1 -830.9,-831 0,-458.9 372.21,-831 830.9,-831zm-16644.16 0c458.9,0 831,372.1 831,831 0,458.9 -372.1,831 -831,831 -458.9,0 -830.89,-372.1 -830.89,-831 0,-458.9 371.99,-831 830.89,-831zm-25346.67 12403.1l1731.42 0 0 3198.15 -1731.42 0 0 -3198.15zm-16097.84 -9111.87l1729.96 -65.33 0 1337.64 -431.26 0 229.92 10450.35 671.64 0 0 669.24 -2570.26 0 0 -669.24 541.82 0 281.22 -10450.35 -453.04 0 0 -1272.31zm11121.79 374.29l1835.28 201.44 0 1322.57 -434.72 -50.47 140.82 9837.97 671.65 0 0 706.09 -2570.16 0 0 -706.09 541.82 0 177.05 -9950.11 -361.21 -36.23 -0.53 -1325.18zm-3711.17 -293.25l1729.95 117.57 0 1327.59 -417.44 -30.79 227.82 10222.96 671.65 0 0 673.53 -2570.16 0 0 -673.53 541.72 0 294.41 -10278.86 -453.56 -27.22 -24.4 -1331.25zm-3897.12 -99.68l1729.95 0 0 1332.82 -431.26 0 184.48 10402.61 671.65 0 0 675.11 -2570.16 0 0 -675.11 541.82 0 326.56 -10402.61 -453.03 0 0 -1332.82zm-7042.61 161.34l1707.22 -107.63 18.54 1341.83 -414.61 22.09 159.77 10333.51 671.65 0 0 659.4 -2570.16 0 0 -659.4 541.72 0 350.32 -10281.9 -464.45 32.04 0 -1339.94zm-3288.71 242.38l1732.35 -123.34 -2.41 1347.48 -422.04 39.58 220.71 10098.05 671.65 0 0 645.05 -2570.16 0 0 -645.05 541.82 0 294.51 -10012.61 -466.43 50.99 0 -1400.15zm-3030.73 444.55l1705.02 -236.1 -18.01 1354.29 -424.77 56.23 199.45 9735.89 671.65 0 0 651.97 -2570.16 0 0 -651.97 541.72 0 302.79 -9601.77 -468.43 55.49 60.73 -1364.03zm-3119.1 529.36l1693.3 -302.99 27.33 1352.19 -442.57 76.12 243 9259.92 671.65 0 0 647.68 -2570.16 0 0 -647.68 541.72 0 276.3 -9108.94 -436.6 82.19 -3.97 -1358.48zm-3000.58 629.55l1678.74 -367.07 1.26 1361.3 -419.11 88.89 206.47 8705.96 671.75 0 0 614.27 -2570.26 0 0 -614.27 541.71 0 288.14 -8516.04 -434.08 99.47 35.39 -1372.51zm-3123.92 738.24l1716.96 -485.8 0 1394.28 -418.27 151.28 205.42 8003.95 671.65 0 0 601.4 -2570.16 0 0 -601.4 541.71 0 322.48 -7836.74 -469.79 167.21 0 -1394.18zm-9030.32 4978.66l-1813.81 0c0,-1205.4 812.04,-2182.35 1813.81,-2182.35 1001.87,0 1813.82,976.95 1813.82,2182.35l-1813.82 0zm-1800.72 2835.26l-13.09 0c0,-958.41 812.04,-1735.39 1813.81,-1735.39 976.33,0 1772.15,737.91 1812.03,1662.72l14.97 0 0 1191.49 -3627.72 0 0 -1118.82zm-6666.1 -2835.26l-1813.92 0c0,-1205.4 812.04,-2182.35 1813.92,-2182.35 1001.66,0 1813.71,976.95 1813.71,2182.35l-1813.71 0zm-1800.84 2835.26l-13.08 0c0,-958.41 812.04,-1735.39 1813.92,-1735.39 976.22,0 1772.03,737.91 1811.92,1662.72l14.97 0 0 1191.49 -3627.73 0 0 -1118.82zm5171 -634.48l1739.48 0 0 2482.42 -1739.48 0 0 -2482.42zm869.74 -42163.68c994.43,0 1800.62,806.29 1800.62,1800.72 0,994.44 -806.19,1800.63 -1800.62,1800.63 -994.44,0 -1800.63,-806.19 -1800.63,-1800.63 0,-994.43 806.19,-1800.72 1800.63,-1800.72zm2850.54 26921.03l2445.05 0 0 1668.49 -2445.05 0 0 -1668.49zm-4073.12 0l2445.05 0 0 1668.49 -2445.05 0 0 -1668.49zm-4073.01 0l2445.05 0 0 1668.49 -2445.05 0 0 -1668.49zm8146.14 -2812.01l2445.05 0 0 1668.49 -2445.05 0 0 -1668.49zm-4073.12 0l2445.05 0 0 1668.49 -2445.05 0 0 -1668.49zm-4073.01 0l2445.05 0 0 1668.49 -2445.05 0 0 -1668.49zm8146.14 -7131.49l2445.05 0 0 2562.3 -2445.05 0 0 -2562.3zm-4073.12 0l2445.05 0 0 2562.3 -2445.05 0 0 -2562.3zm-4073.01 0l2445.05 0 0 2562.3 -2445.05 0 0 -2562.3zm-20335.96 -16872.72c994.54,0 1800.73,806.19 1800.73,1800.62 0,994.43 -806.19,1800.62 -1800.73,1800.62 -994.33,0 -1800.51,-806.19 -1800.51,-1800.62 0,-994.43 806.18,-1800.62 1800.51,-1800.62zm26629.86 -1632.37l389.79 0 0 916.64 -389.79 0 0 -916.64zm-1193.15 0l389.79 0 0 916.64 -389.79 0 0 -916.64zm-1193.26 0l389.79 0 0 916.64 -389.79 0 0 -916.64zm-23245.04 0l389.8 0 0 916.64 -389.8 0 0 -916.64zm-1193.15 0l389.79 0 0 916.64 -389.79 0 0 -916.64zm-1193.26 0l389.8 0 0 916.64 -389.8 0 0 -916.64zm30102.11 7697.5l1203.52 0 0 5512 -1203.52 0 0 -5512zm-3684.27 0l1203.63 0 0 5512 -1203.63 0 0 -5512zm-3684.27 0l1203.52 0 0 5512 -1203.52 0 0 -5512zm-18262.92 0l1203.52 0 0 5512 -1203.52 0 0 -5512zm-3684.27 0l1203.52 0 0 5512 -1203.52 0 0 -5512zm-3684.27 0l1203.52 0 0 5512 -1203.52 0 0 -5512zm7378.16 10807.59l2445.05 0 0 2562.3 -2445.05 0 0 -2562.3zm-4073.12 0l2445.05 0 0 2562.3 -2445.05 0 0 -2562.3zm-4073 0l2445.14 0 0 2562.3 -2445.14 0 0 -2562.3zm9522.61 22985.37l-1813.92 0c0,-1205.4 812.05,-2182.35 1813.92,-2182.35 1001.66,0 1813.71,976.95 1813.71,2182.35l-1813.71 0zm-1800.83 3954.08l0 -1118.82 -13.09 0c0,-958.41 812.05,-1735.39 1813.92,-1735.39 976.11,0 1772.04,737.91 1811.92,1662.72l14.97 0 0 1191.49 -3627.72 0zm-6666.21 -3954.08l-1813.81 0c0,-1205.4 812.04,-2182.35 1813.81,-2182.35 1001.76,0 1813.82,976.95 1813.82,2182.35l-1813.82 0zm-1800.72 3954.08l0 -1118.82 -13.09 0c0,-958.41 812.04,-1735.39 1813.81,-1735.39 976.33,0 1772.14,737.91 1812.03,1662.72l14.97 0 0 1191.49 -3627.72 0zm5170.99 -1753.3l1739.48 0 0 2482.42 -1739.48 0 0 -2482.42zm3720.29 -15242.65l2445.05 0 0 1668.49 -2445.05 0 0 -1668.49zm-4073.12 0l2445.05 0 0 1668.49 -2445.05 0 0 -1668.49zm-4073 0l2445.14 0 0 1668.49 -2445.14 0 0 -1668.49zm8146.13 -2812.01l2445.05 0 0 1668.49 -2445.05 0 0 -1668.49zm-4073.12 0l2445.05 0 0 1668.49 -2445.05 0 0 -1668.49zm-4073 0l2445.14 0 0 1668.49 -2445.14 0 0 -1668.49zm-37716.48 18566.12l1253.04 0 0 1951.91 -1253.04 0 0 -1951.91zm-2078.28 0l1253.04 0 0 1951.91 -1253.04 0 0 -1951.91zm-2078.27 0l1253.04 0 0 1951.91 -1253.04 0 0 -1951.91zm-3019.95 -5661.61l11560.69 0 -960.72 1728.9 1338.37 0 758.75 0 0 1381.81 0 4502.81 -1177.45 0 0 -4502.81 -12427.5 0 0 4502.81 -758.65 0 0 -5884.62 146.37 0 612.28 0 1784.7 0 -876.86 -1728.9zm16450.68 4012.18l1772.98 0 0 3620.4 -1772.98 0 0 -3620.4zm14890.45 2263.91l485.49 850.47 255.57 -563.81 -50.05 859.9 205.84 186.57 -1233.78 0 205.94 -186.57 -463.4 -419.84 668.81 123.75 -74.44 -850.47zm-46734.75 -2673.19l626.52 0 0 1952.02 -626.52 0 0 -1952.02zm-11019.93 -649.23l0.63 0 -0.73 -44.29c0,-780.11 659.92,-1421.82 1505.89,-1499.08l0 4855.64 -1505.79 0 0 -3312.26zm1882.29 -1539.93c830.27,90.57 1473.33,725.67 1473.33,1495.63l-0.73 44.29 0.32 0 0 3312.26 -1472.91 0 0 -4852.19zm6642.86 -752.88l0 -272.64 -4520.61 0 0 -1053.38 -5.55 0 -2317.73 -2220.78 -3.45 3.67 -3.57 -3.67 -2317.72 2220.78 -5.55 0 0 1053.38 -4520.61 0 0 272.64 4520.61 0 84.91 0 96.11 0 0 -1228.34 2145.82 -2055.98 2145.71 2055.98 0 1228.34 96.11 0 84.91 0 4520.61 0zm-17675.86 -12970.89l162.91 0c5.87,-220.18 107.43,-342.9 231.6,-342.9 124.17,0 225.62,122.72 231.38,342.9l163.02 0 0 1132.74 -788.9 0 0 -1132.74zm9172.82 3888.22c180.4,-180.4 472.93,-180.4 653.32,0 180.4,180.4 180.4,472.93 0,653.33 -180.39,180.5 -472.92,180.5 -653.32,0 -180.4,-180.4 -180.4,-472.93 0,-653.33zm2658.21 2658.21c180.39,-180.4 472.92,-180.4 653.32,0 180.4,180.4 180.4,473.03 0,653.32 -180.4,180.4 -472.93,180.4 -653.32,0 -180.51,-180.29 -180.51,-472.92 0,-653.32zm-2658.32 653.32c-180.4,-180.29 -180.4,-472.92 0,-653.32 180.4,-180.4 472.93,-180.4 653.33,0 180.5,180.4 180.5,473.03 0,653.32 -180.4,180.4 -472.93,180.4 -653.33,0zm2658.21 -2658.2c-180.4,-180.4 -180.4,-472.93 0,-653.33 180.29,-180.4 472.93,-180.4 653.33,0 180.4,180.4 180.4,472.93 0,653.33 -180.4,180.5 -473.04,180.5 -653.33,0zm-1002.39 -1339.1c255.15,0 462.04,206.89 462.04,461.93 0,255.15 -206.89,462.04 -462.04,462.04 -255.05,0 -461.94,-206.89 -461.94,-462.04 0,-255.04 206.89,-461.93 461.94,-461.93zm0 3759.33c255.15,0 462.04,206.79 462.04,461.83 0,255.15 -206.89,462.04 -462.04,462.04 -255.05,0 -461.94,-206.89 -461.94,-462.04 0,-255.04 206.89,-461.83 461.94,-461.83zm-2341.6 -1417.73c0,-255.04 206.89,-462.04 462.04,-462.04 255.04,0 461.93,206.99 461.93,462.04 0,255.05 -206.89,461.94 -461.93,461.94 -255.15,0 -462.04,-206.89 -462.04,-461.94zm3759.23 0c0,-255.04 206.89,-462.04 461.93,-462.04 255.15,0 462.05,206.99 462.05,462.04 0,255.05 -206.9,461.94 -462.05,461.94 -255.04,0 -461.93,-206.89 -461.93,-461.94zm-1417.53 -985.63c544.33,0 985.64,441.31 985.64,985.63 0,544.33 -441.31,985.64 -985.64,985.64 -544.23,0 -985.74,-441.31 -985.74,-985.64 0,-544.32 441.52,-985.63 985.74,-985.63zm-10600.7 8944.04c252.43,0 457.11,252.65 457.11,564.23 0,311.69 -204.69,564.11 -457.11,564.11 -252.44,0 -457.12,-252.43 -457.12,-564.11 0,-311.59 204.69,-564.23 457.12,-564.23zm-507.59 -7096.52l240.29 0c8.58,-440.37 158.2,-686.2 341.42,-686.2 183.12,0 332.84,245.83 341.32,686.2l240.49 0 0 2265.38 -1163.52 0 0 -2265.38zm-2199.52 0l240.18 0c8.59,-440.37 158.2,-686.2 341.43,-686.2 183.22,0 332.83,245.83 341.42,686.2l240.28 0 0 2265.38 -1163.32 0 0 -2265.38zm1350.31 12208.47c182.9,87.21 309.39,273.79 309.39,489.99 0,216.2 -126.48,402.78 -309.39,489.99l0 329.49 -490.73 0 0 -342.06c-169.62,-91.71 -284.78,-271.17 -284.78,-477.43 0,-206.26 115.17,-385.72 284.78,-477.43l0 -1212.52c-169.62,-91.61 -284.78,-271.18 -284.78,-477.43 0,-206.26 115.17,-385.72 284.78,-477.43l0 -1824.6 -202.7 0 1024.9 -1108.14 1024.9 -1107.93 1024.9 1107.93 1024.9 1108.14 -202.8 0 0 1836.85c157.78,94.85 263.32,267.72 263.32,465.18 0,197.46 -105.53,370.32 -263.32,465.18l0 1237.02c157.78,94.86 263.32,267.72 263.32,465.18 0,197.46 -105.53,370.32 -263.32,465.18l0 354.3 -490.73 0 0 -319.75c-194.32,-82.5 -330.85,-275.15 -330.85,-499.73 0,-224.58 136.53,-417.23 330.85,-499.73l0 -1167.92c-194.32,-82.6 -330.85,-275.15 -330.85,-499.72 0,-263.11 187.51,-482.46 435.97,-531.88 16.33,-88.57 24.81,-179.76 24.81,-272.95 0,-825.55 -669.24,-1494.79 -1494.79,-1494.79 -825.45,0 -1494.79,669.24 -1494.79,1494.79 0,93.5 8.68,185.01 25.12,273.68 246.25,51.41 431.26,269.71 431.26,531.15 0,216.1 -126.48,402.78 -309.39,489.99l0 1187.39zm-6873.41 -2312.92l950.45 0 0 1880.3 -950.45 0 0 -1880.3zm-2169.48 0l950.36 0 0 1880.3 -950.36 0 0 -1880.3zm2169.48 -2923.62l950.45 0 0 1880.3 -950.45 0 0 -1880.3zm-2169.48 0l950.36 0 0 1880.3 -950.36 0 0 -1880.3zm2169.48 -2923.62l950.45 0 0 1880.29 -950.45 0 0 -1880.29zm-2169.48 0l950.36 0 0 1880.29 -950.36 0 0 -1880.29zm-22557.27 5512.42l0 -1446.32 813.52 0 0 1446.32 -813.52 0zm155469.84 -7281.74c3504.39,-1361.2 7735.61,-2009.92 12218.52,-2560.32 4474.12,-549.47 9287.04,-788.28 14192.52,-686.3 2860.6,59.57 5696.49,234.11 8455.21,517.85 2766.26,284.46 5483.42,560.56 8020.91,1176.3 469.79,113.91 628.2,459.2 590.82,622.54 -25.85,112.76 -16.43,227.62 -738.02,147.42 -1766.49,-196.1 -5215.28,-885.45 -7953.48,-1166.98 -2745.95,-282.48 -5560.27,-456.07 -8390.72,-514.91 -4856.16,-101.13 -9631.81,136.64 -14082.27,683.27 -4441.24,545.37 -8485.88,1612.37 -12074.13,2526.6 -625.9,159.46 -810.69,-523.59 -239.35,-745.45zm-151152.25 11356.63l0 -2264.65c44.6,-50.47 94.96,-98.83 150.34,-144.49 290.23,-239.45 700.03,-387.81 1160.17,-387.81 460.06,0 869.84,148.36 1160.07,387.81 61.57,50.77 116.95,104.91 165.11,161.55l0 2247.58 -914.34 0 0 -1906.79 -807.13 0 0 1906.79 -914.24 0zm3573.49 0l0 -2779.24 -303.84 0c-116.53,-186.58 -264.15,-353.57 -436.8,-496.07 -41.15,-33.92 -83.66,-66.59 -127.84,-97.69l887.85 0 0 -704.21 -4564.79 0 0 704.21 887.86 0c-44.19,31.1 -86.7,63.77 -127.84,97.69 -172.65,142.49 -320.28,309.49 -436.81,496.07l-1149.81 0 0 -3930.73 578.99 -14.87 -765.56 -3790.12 3401.57 -2975.34 3926.33 3852.72 -1366.01 1523.79 -51.09 0 0 8113.78 -352.21 0zm47028.96 0l823.77 0 0 -6593.87 -823.77 0 0 6593.87zm150423.34 0l5968.7 0c-65.33,-462.98 369.9,-155.69 -755.51,-392.21 -195.99,-41.25 -454.29,-781.26 -944.7,-357.96 -405.92,350.42 -1054.32,-731.43 -1662.95,-143.34 -219.23,212.02 -1309.37,289.18 -1635.19,-43.55 -57.37,-58.53 96.85,783.99 -970.35,937.06zm-25239.24 -18844.52c4986.09,0 9486.08,1660.01 11684.97,4552.01 -3439.16,-676.98 -7574.37,-1148.65 -12104.19,-1148.65 -4529.81,0 -8117.86,25.65 -11016.46,835.29 2272.18,-2720.4 6449.48,-4238.65 11435.68,-4238.65zm-55101.81 -9290.19l0 5966.29 568.73 0 0 -2471.84 3.46 0c32.77,-329.81 311.06,-587.37 649.55,-587.37 338.49,0 616.78,257.56 649.56,587.37l3.35 0 0 2471.84 668.92 0 0 -5966.29 -2543.57 0zm-13524.22 5966.29l0 -5966.29 -2536.97 0 0 5966.29 668.82 0 0 -2471.84 3.35 0c32.77,-329.81 311.06,-587.37 649.55,-587.37 338.5,0 616.79,257.56 649.56,587.37l3.46 0 0 2471.84 562.23 0zm16490.78 -12958.12c-145.33,0 -263.11,126.37 -263.11,282.07 0,155.89 117.78,282.17 263.11,282.17 145.21,0 262.89,-126.27 262.89,-282.17 0,-155.69 -117.68,-282.07 -262.89,-282.07zm-19409.69 0c145.33,0 263.11,126.37 263.11,282.07 0,155.89 -117.78,282.17 -263.11,282.17 -145.22,0 -262.9,-126.27 -262.9,-282.17 0,-155.69 117.68,-282.07 262.9,-282.07zm42074.58 6991.82l0 5966.29 568.73 0 0 -2471.84 3.46 0c32.77,-329.81 311.06,-587.37 649.55,-587.37 338.49,0 616.78,257.56 649.55,587.37l3.36 0 0 2471.84 668.92 0 0 -5966.29 -2543.57 0zm-13524.12 5966.29l0 -5966.29 -2537.17 0 0 5966.29 668.92 0 0 -2471.84 3.35 0c32.66,-329.81 311.06,-587.37 649.55,-587.37 338.39,0 616.79,257.56 649.66,587.37l3.35 0 0 2471.84 562.34 0zm16490.68 -12958.12c-145.33,0 -263.11,126.37 -263.11,282.07 0,155.89 117.78,282.17 263.11,282.17 145.32,0 262.89,-126.27 262.89,-282.17 0,-155.69 -117.57,-282.07 -262.89,-282.07zm-19409.69 0c145.33,0 263.11,126.37 263.11,282.07 0,155.89 -117.78,282.17 -263.11,282.17 -145.22,0 -262.9,-126.27 -262.9,-282.17 0,-155.69 117.68,-282.07 262.9,-282.07zm-35079.41 -15185.48l185.01 135.16 585.79 204.79 501.09 55.7 -529.78 473.04 -19.06 110.35 107 618.36 -294.62 103.03 115.69 555.01 -603.27 -332.21 -269.6 197.05 14.86 0 0 1880.71 863.88 0 0.83 37.59 845.03 2859.86 -15.81 0.21 433.66 29494.65 -4545.73 -12.66 417.44 -29481.98 0.42 -1.46 844.3 -2857.25 0 -38.94 863.88 0 0 -1880.71 14.86 0 -269.5 -196.95 -603.37 332.11 115.79 -554.91 -294.72 -103.13 107.1 -618.36 -19.06 -110.35 -529.67 -473.04 500.47 -55.59 586.21 -204.9 184.79 -135.16 353.25 -753.63 352.84 753.63zm-4276.86 44658.04l7788.58 0 889.42 2710.77 -9591.62 0 913.61 -2710.77zm29.63 -4324.19l7788.58 0 0 4110.82 -7788.58 0 0 -4110.82zm649.66 -1592.37l6489.16 0 0 1341.3 -6489.16 0 0 -1341.3zm587.36 -2138.07l5314.54 0 0 1952.22 -5314.54 0 0 -1952.22zm-28614.12 -11456.52l-6182.71 3136.27 -508.52 9660.5 6706.62 -2131.36 -15.39 -10665.41zm828.91 -4197.71l-764.2 3630.35 -5787.79 2684.59 6551.99 -6314.94zm672.58 -277.87l9917.34 104.8 1101.86 3718.82 -11951.53 64.91 932.34 -3888.52zm-1100.28 4352.55l12175.38 0 0 10803.62 -12175.38 0 0 -10803.62zm12650.2 279.23l5763.91 3136.37 508.52 9660.51 -6272.43 -2246.22 0 -10550.67zm-1058.61 -4226.29l1098.19 3661.97 5146.49 2687.11 -6244.68 -6349.08zm-26150.65 -10385.34l1115.78 0 0 457.75 0.53 0 870.05 4179.39 -1349.05 0 0 15934.92 0 75.91 0 9483.56 -3175.53 -2159.32 0 -6515.34 1010.03 -848.27 -5481.43 -4973.95 0 -11173.2 888.9 0 -831.63 -3994.59 -0.53 0 0 -2.62 -1.36 -6.49 1.36 0 0 -457.75 1115.78 0 0 457.75 5837.1 0 0 -457.75zm-7159.03 360.59l356.61 1967.51 356.6 1967.09 -713.22 0 -713.21 0 356.6 -1967.09 356.6 -1967.51zm-26442.66 35872.93l935.39 0 0 2233.44 -935.39 0 0 -2233.44zm-2135.13 0l935.39 0 0 2233.44 -935.39 0 0 -2233.44zm2135.13 -3906.65l935.39 0 0 2233.55 -935.39 0 0 -2233.55zm-2135.13 0l935.39 0 0 2233.55 -935.39 0 0 -2233.55zm2135.13 -3906.64l935.39 0 0 2233.33 -935.39 0 0 -2233.33zm-2135.13 0l935.39 0 0 2233.33 -935.39 0 0 -2233.33zm-6706.83 5198.43l0 -1319.63 3557.27 0 0 1319.63 -3557.27 0zm-1018.4 3762.99l0 -1764.91 5594.08 0 0 1764.91 -5594.08 0zm-19352 -765.35l935.28 0 0 1650.69 -935.28 0 0 -1650.69zm4909.56 -3843.72l935.38 0 0 1650.48 -935.38 0 0 -1650.48zm-2454.79 0l935.39 0 0 1650.48 -935.39 0 0 -1650.48zm-2454.78 0l935.28 0 0 1650.48 -935.28 0 0 -1650.48zm2454.78 3843.72l935.39 0 0 1650.69 -935.39 0 0 -1650.69zm2454.79 0l935.38 0 0 1650.69 -935.38 0 0 -1650.69z"/>
  <g>
   <path class="fil1" d="M249391.32 2435.29l158.55 -52.32 -215.63 -795.91 321.85 0 526.38 687.3 1063.06 -53.91 38.02 -0.31 35.09 -0.93 32.24 -1.54 29.53 -2.13 26.92 -2.73 24.43 -3.3 22.06 -3.86 19.8 -4.42 17.64 -4.96 15.62 -5.51 13.68 -6.02 11.89 -6.55 10.19 -7.06 8.62 -7.55 7.14 -8.05 5.81 -8.51 4.57 -8.99 3.45 -9.43 2.43 -9.89 1.55 -10.33 0.77 -10.74 0.1 -11.17 -0.46 -11.57 -0.88 -11.97 -1.22 -12.36 -1.42 -12.73 -1.52 -13.1 -1.5 -13.46 -1.36 -13.8 -1.11 -14.14 -0.75 -14.47 -0.28 -14.78 0 0 -0.16 -14.92 -0.46 -14.92 -0.76 -14.91 -1.04 -14.93 -1.32 -14.95 -1.59 -14.98 -1.84 -15.03 -2.09 -15.09 -2.32 -15.16 -2.55 -15.24 -2.76 -15.34 -2.97 -15.44 -3.16 -15.56 -3.35 -15.68 -3.53 -15.83 -3.7 -15.97 -3.84 -16.14 -3.99 -16.3 -4.13 -16.5 -4.25 -16.7 -4.37 -16.91 -4.48 -17.11 -4.57 -17.36 -4.66 -17.6 -4.74 -17.86 -4.8 -18.12 -4.86 -18.4 -4.9 -18.69 -4.93 -18.99 -4.95 -19.31 -4.97 -19.63 -4.98 -19.97 0 0 -639.74 -1424.55 372.59 0 15.38 1.66 16.21 4.85 16.95 7.82 17.61 10.57 18.17 13.12 18.66 15.46 19.07 17.58 19.36 19.49 19.6 21.19 19.73 22.66 19.78 23.95 19.75 25 19.62 25.86 19.42 26.49 19.12 26.91 18.74 27.13 18.27 27.13 17.73 26.91 17.08 26.49 16.36 25.86 15.54 25 14.65 23.95 13.66 22.66 12.59 21.19 11.44 19.49 10.19 17.58 8.85 15.46 7.44 13.12 5.95 10.57 4.34 7.82 2.68 4.85 0.91 1.66 0 0 320.27 0 24.12 0.76 22.57 2.22 21.04 3.58 19.51 4.85 18 6.01 16.49 7.09 14.99 8.06 13.51 8.93 12.03 9.71 10.55 10.39 9.11 10.97 7.66 11.46 6.21 11.84 4.8 12.14 3.37 12.35 1.96 12.43 0.56 12.43 -0.82 12.35 -2.2 12.14 -3.57 11.84 -4.92 11.46 -6.28 10.97 -7.61 10.39 -8.95 9.71 -10.27 8.93 -11.57 8.06 -12.87 7.09 -14.16 6.01 -15.44 4.85 -16.72 3.58 -17.97 2.22 -19.22 0.76 0 0 -162.51 0 321.85 423.32 214.04 0 33.12 -4.05 30.71 -1.98 28.34 -0.04 26.03 1.78 23.76 3.46 21.54 5.02 19.37 6.46 17.25 7.77 15.18 8.94 13.15 10 11.17 10.92 9.24 11.71 7.35 12.39 5.52 12.92 3.73 13.35 1.99 13.63 0.3 13.79 -1.36 13.82 -2.94 13.72 -4.5 13.51 -6 13.16 -7.46 12.67 -8.86 12.08 -10.22 11.35 -11.53 10.49 -12.79 9.5 -14.01 8.38 -15.17 7.15 -16.3 5.79 -17.37 4.28 -18.39 2.67 -19.37 0.92 0 0 -101.47 0 475.64 634.19 953.67 52.32 66.05 15.66 59.17 16.46 52.56 17.16 46.22 17.79 40.13 18.32 34.31 18.78 28.74 19.15 23.44 19.43 18.39 19.64 13.62 19.75 9.09 19.79 4.83 19.73 0.82 19.59 -2.91 19.37 -6.38 19.08 -9.61 18.67 -12.56 18.19 -15.26 17.64 -17.69 16.99 -19.88 16.26 -21.78 15.45 -23.44 14.55 -24.82 13.57 -25.95 12.5 -26.82 11.34 -27.44 10.11 -27.79 8.78 -27.86 7.38 -27.7 5.88 -27.26 4.31 -26.57 2.65 -25.62 0.9 0 0 -953.67 53.91 -475.64 640.53 153.79 0 14.47 5.35 13.52 6.19 12.55 6.97 11.55 7.68 10.55 8.33 9.52 8.9 8.47 9.41 7.41 9.87 6.33 10.24 5.23 10.55 4.1 10.79 2.97 10.98 1.82 11.09 0.63 11.14 -0.55 11.11 -1.76 11.03 -3 10.87 -4.24 10.66 -5.51 10.37 -6.81 10.02 -8.11 9.59 -9.42 9.12 -10.77 8.55 -12.14 7.95 -13.52 7.24 -14.9 6.51 -16.33 5.69 -17.77 4.8 -19.21 3.84 -20.69 2.83 -22.18 1.75 -23.69 0.59 0 0 -266.36 0 -321.85 429.66 108.61 0 19.67 0.74 18.99 2.18 18.25 3.51 17.45 4.75 16.6 5.89 15.68 6.93 14.7 7.9 13.67 8.74 12.57 9.5 11.43 10.18 10.21 10.74 8.95 11.22 7.61 11.6 6.23 11.89 4.79 12.08 3.28 12.17 1.71 12.17 0.1 12.08 -1.59 11.89 -3.33 11.6 -5.12 11.22 -6.98 10.74 -8.9 10.18 -10.87 9.5 -12.9 8.74 -14.99 7.9 -17.15 6.93 -19.35 5.89 -21.62 4.75 -23.95 3.51 -26.34 2.18 -28.79 0.74 0 0 -267.95 0 -206.9 266.36 -14.78 14.94 -14.21 14.93 -13.7 14.88 -13.26 14.81 -12.86 14.72 -12.53 14.59 -12.26 14.41 -12.04 14.23 -11.88 13.99 -11.79 13.75 -11.74 13.46 -11.76 13.14 -11.85 12.8 -11.98 12.43 -12.17 12.01 -12.44 11.58 -12.74 11.11 -13.12 10.62 -13.55 10.09 -14.04 9.53 -14.59 8.95 -15.19 8.32 -15.86 7.67 -16.59 7 -17.37 6.29 -18.2 5.54 -19.11 4.79 -20.08 3.97 -21.1 3.14 -22.17 2.29 -23.31 1.39 -24.51 0.48 0 0 -210.08 0 639.74 -1384.12 107.02 -420.94 13.15 -43.12 10.83 -39.53 8.62 -36.1 6.52 -32.82 4.5 -29.71 2.61 -26.74 0.8 -23.92 -0.89 -21.28 -2.48 -18.79 -3.97 -16.43 -5.36 -14.26 -6.64 -12.23 -7.82 -10.35 -8.89 -8.63 -9.86 -7.08 -10.73 -5.67 -11.49 -4.42 -12.16 -3.32 -12.7 -2.39 -13.17 -1.61 -13.52 -0.98 -13.76 -0.51 -13.9 -0.2 -13.94 -0.04 -13.88 -0.03 -13.71 -0.19 -13.44 -0.5 -13.07 -0.96 -12.59 -1.59 -12.01 -2.36 -11.33 -3.3 -10.53 -4.38 0 0 -1169.29 -106.23 -526.38 692.06 -321.85 0 215.63 -792.74 -158.55 -53.91 0 -53.11zm1813.79 226.72l0 -396.37 792.74 0 0 396.37 -792.74 0zm-1981.85 0l0 -396.37 792.74 0 0 396.37 -792.74 0zm-1981.85 0l0 -396.37 792.74 0 0 396.37 -792.74 0zm-1981.85 0l0 -396.37 792.74 0 0 396.37 -792.74 0zm-1981.85 0l0 -396.37 792.74 0 0 396.37 -792.74 0zm-1981.85 0l0 -396.37 792.74 0 0 396.37 -792.74 0zm-1981.84 0l0 -396.37 792.74 0 0 396.37 -792.74 0zm-1981.85 0l0 -396.37 792.74 0 0 396.37 -792.74 0zm-1981.85 0l0 -396.37 792.74 0 0 396.37 -792.74 0zm-1981.85 0l0 -396.37 792.74 0 0 396.37 -792.74 0zm-1981.85 0l0 -396.37 792.74 0 0 396.37 -792.74 0zm-1981.85 0l0 -396.37 792.74 0 0 396.37 -792.74 0zm-1981.85 0l0 -396.37 792.74 0 0 396.37 -792.74 0zm-1981.85 0l0 -396.37 792.74 0 0 396.37 -792.74 0zm-1981.85 0l0 -396.37 792.74 0 0 396.37 -792.74 0zm-1981.85 0l0 -396.37 792.74 0 0 396.37 -792.74 0zm-1981.85 0l0 -396.37 792.74 0 0 396.37 -792.74 0zm-1981.85 0l0 -396.37 792.74 0 0 396.37 -792.74 0zm-1981.85 0l0 -396.37 792.74 0 0 396.37 -792.74 0zm-1981.85 0l0 -396.37 792.74 0 0 396.37 -792.74 0zm-1981.85 0l0 -396.37 792.74 0 0 396.37 -792.74 0zm-1981.85 0l0 -396.37 792.74 0 0 396.37 -792.74 0zm-1981.85 0l0 -396.37 792.74 0 0 396.37 -792.74 0zm-1981.85 0l0 -396.37 792.74 0 0 396.37 -792.74 0zm-1981.85 0l0 -396.37 792.74 0 0 396.37 -792.74 0zm-1981.85 0l0 -396.37 792.74 0 0 396.37 -792.74 0zm-1981.85 0l0 -396.37 792.74 0 0 396.37 -792.74 0zm-1981.85 0l0 -396.37 792.74 0 0 396.37 -792.74 0zm-1981.85 0l0 -396.37 792.74 0 0 396.37 -792.74 0zm-1981.85 0l0 -396.37 792.74 0 0 396.37 -792.74 0zm-1981.85 0l0 -396.37 792.74 0 0 396.37 -792.74 0zm-1981.85 0l0 -396.37 792.74 0 0 396.37 -792.74 0zm-1981.85 0l0 -396.37 792.74 0 0 396.37 -792.74 0zm-1981.85 0l0 -396.37 792.74 0 0 396.37 -792.74 0zm-1981.85 0l0 -396.37 792.74 0 0 396.37 -792.74 0zm-1981.85 0l0 -396.37 792.74 0 0 396.37 -792.74 0zm-1981.85 0l0 -396.37 792.74 0 0 396.37 -792.74 0zm-1981.85 0l0 -396.37 792.74 0 0 396.37 -792.74 0zm-1981.85 0l0 -396.37 792.74 0 0 396.37 -792.74 0zm-1981.85 0l0 -396.37 792.74 0 0 396.37 -792.74 0zm-1981.85 0l0 -396.37 792.74 0 0 396.37 -792.74 0zm-1981.85 0l0 -396.37 792.74 0 0 396.37 -792.74 0zm-1981.85 0l0 -396.37 792.74 0 0 396.37 -792.74 0zm-1981.85 0l0 -396.37 792.74 0 0 396.37 -792.74 0zm-1981.85 0l0 -396.37 792.74 0 0 396.37 -792.74 0zm-1981.85 0l0 -396.37 792.74 0 0 396.37 -792.74 0zm-1981.85 0l0 -396.37 792.74 0 0 396.37 -792.74 0zm-1981.85 0l0 -396.37 792.74 0 0 396.37 -792.74 0zm-1981.85 0l0 -396.37 792.74 0 0 396.37 -792.74 0zm-1981.85 0l0 -396.37 792.74 0 0 396.37 -792.74 0zm-1981.85 0l0 -396.37 792.74 0 0 396.37 -792.74 0zm-1981.85 0l0 -396.37 792.74 0 0 396.37 -792.74 0zm-1981.85 0l0 -396.37 792.74 0 0 396.37 -792.74 0zm-1981.85 0l0 -396.37 792.74 0 0 396.37 -792.74 0zm-1981.85 0l0 -396.37 792.74 0 0 396.37 -792.74 0zm-1981.85 0l0 -396.37 792.74 0 0 396.37 -792.74 0zm-1981.85 0l0 -396.37 792.74 0 0 396.37 -792.74 0zm-1981.85 0l0 -396.37 792.74 0 0 396.37 -792.74 0zm-1981.85 0l0 -396.37 792.74 0 0 396.37 -792.74 0zm-1981.85 0l0 -396.37 792.74 0 0 396.37 -792.74 0zm-1981.85 0l0 -396.37 792.74 0 0 396.37 -792.74 0zm-1981.85 0l0 -396.37 792.74 0 0 396.37 -792.74 0zm-1981.85 0l0 -396.37 792.74 0 0 396.37 -792.74 0zm-1981.85 0l0 -396.37 792.74 0 0 396.37 -792.74 0zm-1981.85 0l0 -396.37 792.74 0 0 396.37 -792.74 0zm-1981.85 0l0 -396.37 792.74 0 0 396.37 -792.74 0zm-1981.85 0l0 -396.37 792.74 0 0 396.37 -792.74 0zm-1981.85 0l0 -396.37 792.74 0 0 396.37 -792.74 0zm-1981.85 0l0 -396.37 792.74 0 0 396.37 -792.74 0zm-1981.85 0l0 -396.37 792.74 0 0 396.37 -792.74 0zm-1981.85 0l0 -396.37 792.74 0 0 396.37 -792.74 0zm-1981.85 0l0 -396.37 792.74 0 0 396.37 -792.74 0zm-1981.85 0l0 -396.37 792.74 0 0 396.37 -792.74 0zm-1981.85 0l0 -396.37 792.74 0 0 396.37 -792.74 0zm-1981.85 0l0 -396.37 792.74 0 0 396.37 -792.74 0zm-1981.85 0l0 -396.37 792.74 0 0 396.37 -792.74 0zm-1981.85 0l0 -396.37 792.74 0 0 396.37 -792.74 0zm-1981.85 0l0 -396.37 792.74 0 0 396.37 -792.74 0zm-1981.85 0l0 -396.37 792.74 0 0 396.37 -792.74 0zm-1981.85 0l0 -396.37 792.74 0 0 396.37 -792.74 0zm-1981.85 0l0 -396.37 792.74 0 0 396.37 -792.74 0zm-1981.85 0l0 -396.37 792.74 0 0 396.37 -792.74 0zm-1981.85 0l0 -396.37 792.74 0 0 396.37 -792.74 0zm-1981.85 0l0 -396.37 792.74 0 0 396.37 -792.74 0zm-1981.85 0l0 -396.37 792.74 0 0 396.37 -792.74 0zm-1981.85 0l0 -396.37 792.74 0 0 396.37 -792.74 0zm-1981.85 0l0 -396.37 792.74 0 0 396.37 -792.74 0zm-1981.85 0l0 -396.37 792.74 0 0 396.37 -792.74 0zm-1981.85 0l0 -396.37 792.74 0 0 396.37 -792.74 0zm-1981.85 0l0 -396.37 792.74 0 0 396.37 -792.74 0zm-1981.85 0l0 -396.37 792.74 0 0 396.37 -792.74 0zm-1981.85 0l0 -396.37 792.74 0 0 396.37 -792.74 0zm-1981.85 0l0 -396.37 792.74 0 0 396.37 -792.74 0zm-1981.85 0l0 -396.37 792.74 0 0 396.37 -792.74 0zm-1981.85 0l0 -396.37 792.74 0 0 396.37 -792.74 0zm-1981.85 0l0 -396.37 792.74 0 0 396.37 -792.74 0zm-1981.85 0l0 -396.37 792.74 0 0 396.37 -792.74 0zm-1981.85 0l0 -396.37 792.74 0 0 396.37 -792.74 0zm-1981.85 0l0 -396.37 792.74 0 0 396.37 -792.74 0zm-1981.85 0l0 -396.37 792.74 0 0 396.37 -792.74 0zm-1981.85 0l0 -396.37 792.74 0 0 396.37 -792.74 0zm-1981.85 0l0 -396.37 792.74 0 0 396.37 -792.74 0zm-1981.85 0l0 -396.37 792.74 0 0 396.37 -792.74 0zm-1981.85 0l0 -396.37 792.74 0 0 396.37 -792.74 0zm-1981.85 0l0 -396.37 792.74 0 0 396.37 -792.74 0zm-1981.85 0l0 -396.37 792.74 0 0 396.37 -792.74 0zm-1981.85 0l0 -396.37 792.74 0 0 396.37 -792.74 0zm-1981.85 0l0 -396.37 792.74 0 0 396.37 -792.74 0zm-1981.85 0l0 -396.37 792.74 0 0 396.37 -792.74 0zm-1981.85 0l0 -396.37 792.74 0 0 396.37 -792.74 0zm-1981.85 0l0 -396.37 792.74 0 0 396.37 -792.74 0zm-1981.85 0l0 -396.37 792.74 0 0 396.37 -792.74 0zm-1981.85 0l0 -396.37 792.74 0 0 396.37 -792.74 0zm-1981.85 0l0 -396.37 792.74 0 0 396.37 -792.74 0zm-1981.85 0l0 -396.37 792.74 0 0 396.37 -792.74 0zm-1981.85 0l0 -396.37 792.74 0 0 396.37 -792.74 0zm-1981.85 0l0 -396.37 792.74 0 0 396.37 -792.74 0zm-1981.85 0l0 -396.37 792.74 0 0 396.37 -792.74 0zm-1981.85 0l0 -396.37 792.74 0 0 396.37 -792.74 0zm-1981.85 0l0 -396.37 792.74 0 0 396.37 -792.74 0zm-1981.85 0l0 -396.37 792.74 0 0 396.37 -792.74 0zm-1981.85 0l0 -396.37 792.74 0 0 396.37 -792.74 0zm-1981.85 0l0 -396.37 792.74 0 0 396.37 -792.74 0zm-1981.85 0l0 -396.37 792.74 0 0 396.37 -792.74 0zm-1981.85 0l0 -396.37 792.74 0 0 396.37 -792.74 0zm-1981.85 0l0 -396.37 792.74 0 0 396.37 -792.74 0zm-1981.85 0l0 -396.37 792.74 0 0 396.37 -792.74 0zm-1492.26 -396.37l303.15 0 0 396.37 -303.15 0 0 -396.37z"/>
  </g>
 </g>
</svg>
