<?xml version="1.0" encoding="UTF-8"?>
<!DOCTYPE svg PUBLIC "-//W3C//DTD SVG 1.1//EN" "http://www.w3.org/Graphics/SVG/1.1/DTD/svg11.dtd">
<!-- Creator: CorelDRAW 2020 (64-Bit) -->
<svg xmlns="http://www.w3.org/2000/svg" xml:space="preserve" width="1614.06mm" height="83.5421mm" version="1.1" style="shape-rendering:geometricPrecision; text-rendering:geometricPrecision; image-rendering:optimizeQuality; fill-rule:evenodd; clip-rule:evenodd"
viewBox="0 0 70013.71 3623.84"
 xmlns:xlink="http://www.w3.org/1999/xlink"
 xmlns:xodm="http://www.corel.com/coreldraw/odm/2003">
 <defs>
  <style type="text/css">
   <![CDATA[
    .fil0 {fill:#2F83C5}
   ]]>
  </style>
 </defs>
 <g id="Слой_x0020_1">
  <metadata id="CorelCorpID_0Corel-Layer"/>
  <path class="fil0" d="M52556.05 2561.11l0 -10.28 -212.46 0 0 -202.1 -0.3 0 0 -10.32 -212.41 0 0 -202.06 -0.3 0 0 -10.27 -212.46 0 0 -202.14 -0.3 0 0 -10.23 -212.8 0 0 212.38 -212.63 0 0 212.71 0.25 0 0 10.23 212.38 0 0 202.1 0.38 0 0 10.32 212.42 0 0 202.14 0.3 0 0 10.32 212.46 0 0 201.67 -212.76 0 0 212.46 -212.42 0 0 -202.14 -0.38 0 0 -10.32 -212.38 0 0 -201.97 -0.25 0 0 -10.32 -212.51 0 0 -202.19 -0.21 0 0 -10.28 -212.76 0 0 212.46 -212.76 0 0 212.67 0.26 0 0 10.28 212.5 0 0 202.19 0.26 0 0 10.23 212.5 0 0 202.1 0.21 0 0 10.32 212.51 0 0 202.14 0.25 0 0 10.28 212.76 0 212.72 0 212.76 0 0 -212.42 212.71 0 0 -212.41 12.02 0 0 0.34 212.76 0 0 212.46 212.71 0 0 212.37 212.76 0 212.76 0 212.8 0 0 -212.37 212.67 0 0 -212.46 212.76 0 0 -212.42 212.71 0 0 -212.67 -212.71 0 0 -212.46 -212.76 0 0 212.46 -212.67 0 0 212.33 -212.8 0 0 212.42 -212.76 0 0 -212.42 -212.76 0 0 -211.99 212.76 0 0 -212.41 212.76 0 0 -212.42 212.8 0 0 -212.71 -212.8 0 0 -212.46 -212.76 0 0 212.46 -212.76 0 0 212.33 -212.71 0 0 212.41 -12.06 0 0 -0.34 -0.26 0zm-52556.05 637.89l0 212.42 212.71 0 0 212.41 212.76 0 212.71 0 212.8 0 0 -212.41 212.71 0 0 -212.42 212.72 0 0 -212.38 212.71 0 0 -212.71 -212.71 0 0 -212.46 -212.72 0 0 212.46 -212.71 0 0 212.33 -212.8 0 0 212.42 -212.71 0 0 -212.42 -212.76 0 0 -211.99 212.76 0 0 -212.41 212.71 0 0 -212.42 212.8 0 0 -212.71 -212.8 0 0 -212.42 -212.71 0 0 212.42 -212.76 0 0 212.38 -212.71 0 0 212.37 0 637.55zm212.71 -2973.85l0 -1.48 0 -210.68 0 -2.03 212.76 0 212.71 0 212.8 0 0 2.03 0 210.68 0 1.48 212.71 0 0 212.38 212.72 0 0 212.38 212.71 0 0 212.71 -212.71 0 0 212.42 -212.72 0 0 -212.42 -212.71 0 0 -212.37 -212.8 0 0 -212.38 -212.71 0 0 212.38 -212.76 0 0 212.08 212.76 0 0 212.38 212.71 0 0 212.38 212.8 0 0 212.8 -212.8 0 0 212.38 -212.71 0 0 -212.38 -212.76 0 0 -212.46 -212.71 0 0 -212.38 0 -637.51 0 -212.38 212.71 0zm-212.71 1486.76l212.71 0 0 212.71 -212.71 0 0 -212.71zm850.99 0l212.71 0 0 -212.38 212.72 0 0 -212.46 212.71 0 0 -212.38 212.76 0 0 212.38 212.71 0 0 212.46 212.71 0 0 212.38 212.71 0 0 212.71 -212.71 0 0 212.42 -212.71 0 0 212.38 -212.71 0 0 212.42 -212.76 0 0 -212.42 -212.71 0 0 -212.38 -212.72 0 0 -212.42 -212.71 0 0 -212.71zm212.71 0.34l0 212.04 212.72 0 0 -212.04 -212.72 0zm2768.1 -1276.25l0 0.34 212.71 0 0 -210.97 212.72 0 0 -2.03 0 -210.68 0 -2.04 -212.72 0 0 2.04 0 210.64 -212.71 0 0 -210.3 0 -2.03 -212.71 0 0 2.03 0 210.68 0 2.04 212.71 0 0 210.29 0 0zm-1063.7 -425.05l212.71 0 0 2.03 0 210.68 0 1.48 212.8 0 0 212.38 212.71 0 0 212.38 212.76 0 0 212.42 212.71 0 0 212.08 212.71 0 0 -0.04 0 -212.37 212.72 0 0 -212.42 212.75 0 0 212.42 0 0.34 0 212.03 0 0.34 0 212.03 0 0.34 0 212.12 0 0.34 0 212.04 0 0.34 0 212.04 0 0.34 0 212.08 0 0.34 0 212.03 0 0.34 0 212.03 0 0.34 0 212.12 0 0.34 0 212.33 -212.75 0 0 -212.33 -212.72 0 0 -212.08 -212.71 0 0 212.41 -212.71 0 0 212.38 -212.76 0 0 212.38 -212.71 0 0 212.42 -212.8 0 0 212.41 -212.71 0 -212.71 0 0 -212.41 0 -0.3 0 -212.46 212.71 0 0 -212.42 212.71 0 0 -211.99 -212.71 0 0 -212.41 -212.71 0 0 -212.42 0 -0.34 0 -212.04 0 -0.34 0 -212.42 212.71 0 0 212.42 212.71 0 0 212.38 212.8 0 0 212.37 212.71 0 0 -212.03 0 -0.34 0 -212.04 -212.71 0 0 -212.42 -212.8 0 0 -212.71 212.8 0 0 -212.38 212.71 0 0 -212.12 0 -0.34 0 -212.04 -212.71 0 0 212.38 -212.8 0 0 212.46 -212.71 0 0 212.38 -212.71 0 0 -212.38 0 -0.34 0 -212.12 0 -0.34 0 -212.38 212.71 0 0 -212.38 212.71 0 0 -212.08 -212.71 0 0 -212.38 -212.71 0 0 -212.16 0 -0.56 0 -1.48 0 -210.68 0 -2.03 212.71 0zm-1278.97 0l-212.71 0 0 2.03 0 210.68 0 2.04 212.71 0 0 212.16 212.76 0 0 -212.16 212.71 0 0 -2.04 0 -210.68 0 -2.03 -212.71 0 -212.76 0zm1063.66 2.03l0 -2.03 -212.76 0 0 2.03 0 210.68 0 1.48 -212.71 0 0 212.38 -212.71 0 0 212.38 -212.71 0 0 212.71 212.71 0 0 212.42 212.71 0 0 -212.42 212.71 0 0 -212.37 212.76 0 0 -212.38 0 -0.34 0 -211.82 0 -0.56 0 -1.48 0 -210.68zm-425.47 3186.01l-212.71 0 0 -212.38 -212.71 0 0 -212.71 212.71 0 0 -212.46 212.71 0 0 212.46 212.71 0 0 212.33 212.76 0 0 212.42 0 0.34 0 212.12 0 0.3 0 212.41 -212.76 0 0 -212.41 -212.71 0 0 -212.42zm-638.19 -1911.59l0 212.12 212.76 0 0 -212.12 -212.76 0zm0 212.46l-212.71 0 0 212.04 212.71 0 0 -212.04zm425.47 0l-212.71 0 0 212.04 212.71 0 0 -212.04zm425.43 -212.8l212.76 0 0 212.8 -212.76 0 0 -212.8zm-850.9 425.17l0 212.04 212.76 0 0 -212.04 -212.76 0zm0 212.38l-212.71 0 0 212.08 212.71 0 0 -212.08zm425.47 -212.38l0 212.04 212.71 0 0 -212.04 -212.71 0zm0 212.38l-212.71 0 0 212.08 212.71 0 0 -212.08zm-425.47 212.42l0 212.04 212.76 0 0 -212.04 -212.76 0zm850.9 -0.34l212.76 0 0 212.71 -212.76 0 0 -212.71zm-850.9 1061.96l212.76 0 0 212.46 212.71 0 0 212.71 -212.71 0 -212.76 0 -212.71 0 0 -212.71 212.71 0 0 -212.46zm2129.95 -1274.38l0 -212.04 212.71 0 0 -212.38 212.71 0 0 212.04 212.72 0 0 212.04 -212.72 0 0 212.41 0 0 -212.71 0 0 -212.08 -212.71 0zm212.71 1699.55l-212.71 0 0 -212.71 212.71 0 0 -212.8 212.71 0 0 0.34 0 0 0 212.12 212.72 0 0 212.71 -212.72 0 0 -212.03 -212.71 0 0 212.37zm3619.85 -3612.88l212.71 0 0 2.03 0 210.68 0 1.48 212.72 0 0 212.38 212.76 0 0 212.38 212.71 0 0 212.42 212.71 0 0 212.08 212.71 0 0 -0.04 0 -212.37 212.76 0 0 -212.42 202.82 0 0 -212.04 212.71 0 0 -212.38 212.76 0 0 -1.48 0 -210.68 0 -2.03 212.71 0 212.8 0 212.67 0 0 2.03 0 210.68 0 1.48 212.76 0 0 212.38 212.72 0 0 212.38 212.75 0 0 212.71 -212.75 0 0 212.42 -212.72 0 0 -212.42 -212.76 0 0 -212.37 -212.67 0 0 -212.38 -212.8 0 0 212.38 -212.71 0 0 212.08 212.71 0 0 212.38 212.8 0 0 212.38 212.67 0 0 212.8 -212.67 0 0 212.38 -212.8 0 0 -212.38 -212.71 0 0 -212.46 -212.76 0 0 -212.38 -202.82 0 0 211.69 0 0.34 0 212.12 0 0.34 202.82 0 0 212.38 212.76 0 0 212.71 -212.76 0 0 212.42 -202.82 0 0 211.69 0 0.34 0 212.03 0 0.34 202.82 0 0 -212.37 212.76 0 0 -212.38 212.71 0 0 -212.42 212.8 0 0 212.42 212.67 0 0 212.71 -212.67 0 0 212.42 -212.8 0 0 212.41 -212.71 0 0 211.99 212.71 0 0 212.42 212.8 0 0 -212.42 212.67 0 0 -212.33 212.76 0 0 -212.46 212.72 0 0 212.46 212.75 0 0 212.71 -212.75 0 0 212.38 -212.72 0 0 212.42 -212.76 0 0 212.41 -212.67 0 -212.8 0 -212.71 0 0 -212.41 -212.76 0 0 -212.42 -212.71 0 0 -212.38 0 -0.38 -202.82 0 0 -212.33 -212.76 0 0 -212.08 -212.71 0 0 212.41 -212.71 0 0 212.38 -212.71 0 0 212.38 -212.76 0 0 212.42 -212.72 0 0 212.41 -212.71 0 -212.76 0 0 -212.41 0 -0.3 0 -212.46 212.76 0 0 -212.42 212.71 0 0 -211.99 -212.71 0 0 -212.41 -212.76 0 0 -212.42 0 -0.34 0 -212.04 0 -0.34 0 -212.42 212.76 0 0 212.42 212.71 0 0 212.38 212.72 0 0 212.37 212.76 0 0 -212.03 0 -0.34 0 -212.04 -212.76 0 0 -212.42 -212.72 0 0 -212.71 212.72 0 0 -212.38 212.76 0 0 -212.12 0 -0.34 0 -212.04 -212.76 0 0 212.38 -212.72 0 0 212.46 -212.71 0 0 212.38 -212.76 0 0 -212.38 0 -0.34 0 -212.12 0 -0.34 0 -212.38 212.76 0 0 -212.38 212.71 0 0 -212.08 -212.71 0 0 -212.38 -212.76 0 0 -212.16 0 -0.56 0 -1.48 0 -210.68 0 -2.03 212.76 0zm-1279.01 0l-212.76 0 0 2.03 0 210.68 0 2.04 212.76 0 0 212.16 212.72 0 0 -212.16 212.71 0 0 -2.04 0 -210.68 0 -2.03 -212.71 0 -212.72 0zm1063.66 2.03l0 -2.03 -212.76 0 0 2.03 0 210.68 0 1.48 -212.76 0 0 212.38 -212.71 0 0 212.38 -212.71 0 0 212.71 212.71 0 0 212.42 212.71 0 0 -212.42 212.76 0 0 -212.37 212.76 0 0 -212.38 0 -0.34 0 -211.82 0 -0.56 0 -1.48 0 -210.68zm-2127.36 -2.03l-212.71 0 0 2.03 0 210.68 0 1.48 -212.76 0 0 212.38 -212.71 0 0 212.38 0 0.34 0 212.08 0 0.29 0 212.42 212.71 0 0 212.38 212.76 0 0 212.46 212.71 0 0 212.38 212.8 0 0 -212.38 212.71 0 0 -212.8 -212.71 0 0 -212.38 -212.8 0 0 -212.38 -212.71 0 0 -212.08 212.71 0 0 -212.38 212.8 0 0 212.38 212.71 0 0 212.37 212.71 0 0 212.42 212.71 0 0 -212.42 212.76 0 0 -212.71 -212.76 0 0 -212.38 -212.71 0 0 -212.38 -212.71 0 0 -1.48 0 -210.68 0 -2.03 -212.71 0 -212.8 0zm-212.71 3400.47l-212.76 0 0 -212.42 -212.71 0 0 -212.38 0 -0.38 0 -211.99 0 -0.34 0 -212.46 212.71 0 0 -212.37 212.76 0 0 -212.38 212.71 0 0 -212.42 212.8 0 0 212.42 212.71 0 0 212.71 -212.71 0 0 212.42 -212.8 0 0 212.41 -212.71 0 0 211.99 212.71 0 0 212.42 212.8 0 0 -212.42 212.71 0 0 -212.33 212.71 0 0 -212.46 212.71 0 0 212.46 212.76 0 0 212.71 -212.76 0 0 212.38 -212.71 0 0 212.42 -212.71 0 0 212.41 -212.71 0 -212.8 0 -212.71 0 0 -212.41zm-425.47 -1487.14l0 -212.04 0 -0.34 0 -212.38 212.71 0 0 212.38 212.76 0 0 212.71 -212.76 0 0 212.42 -212.71 0 0 -212.42 0 -0.34zm1063.7 -212.38l212.71 0 0 -212.38 212.71 0 0 -212.46 212.76 0 0 -212.38 212.72 0 0 212.38 212.71 0 0 212.46 212.71 0 0 212.38 212.76 0 0 212.71 -212.76 0 0 212.42 -212.71 0 0 212.38 -212.71 0 0 212.42 -212.72 0 0 -212.42 -212.76 0 0 -212.38 -212.71 0 0 -212.42 -212.71 0 0 -212.71zm212.71 0.34l0 212.04 212.71 0 0 -212.04 -212.71 0zm2768.1 -1276.25l0 0.34 212.71 0 0 -210.97 212.76 0 0 -2.03 0 -210.68 0 -2.04 -212.76 0 0 2.04 0 210.64 -212.71 0 0 -210.3 0 -2.03 -212.71 0 0 2.03 0 210.68 0 2.04 212.71 0 0 210.29 0 0zm-2342.63 851.41l0 212.12 212.72 0 0 -212.12 -212.72 0zm0 212.46l-212.76 0 0 212.04 212.76 0 0 -212.04zm425.43 0l-212.71 0 0 212.04 212.71 0 0 -212.04zm425.47 -212.8l212.76 0 0 212.8 -212.76 0 0 -212.8zm-850.9 425.17l0 212.04 212.72 0 0 -212.04 -212.72 0zm0 212.38l-212.76 0 0 212.08 212.76 0 0 -212.08zm425.43 -212.38l0 212.04 212.71 0 0 -212.04 -212.71 0zm0 212.38l-212.71 0 0 212.08 212.71 0 0 -212.08zm-425.43 212.42l0 212.04 212.72 0 0 -212.04 -212.72 0zm850.9 -0.34l212.76 0 0 212.71 -212.76 0 0 -212.71zm-425.47 424.75l212.71 0 0 212.46 212.76 0 0 212.33 212.76 0 0 212.42 0 0.34 0 212.12 0 0.3 0 212.41 -212.76 0 0 -212.41 -212.76 0 0 -212.42 -212.71 0 0 -212.38 -212.71 0 0 -212.71 212.71 0 0 -212.46zm-425.43 637.21l212.72 0 0 212.46 212.71 0 0 212.71 -212.71 0 -212.72 0 -212.76 0 0 -212.71 212.76 0 0 -212.46zm2129.91 -1486.42l212.71 0 0 -212.38 212.71 0 0 212.04 212.76 0 0 212.04 -212.76 0 0 212.41 0 0 -212.71 0 0 -212.08 -212.71 0 0 -212.04zm212.71 1911.59l-212.71 0 0 -212.71 212.71 0 0 -212.8 212.71 0 0 0.34 0 0 0 212.12 212.76 0 0 212.71 -212.76 0 0 -212.03 -212.71 0 0 212.37zm4460.09 -3610.85l0 -2.03 212.71 0 0 2.03 0 210.3 212.71 0 0 -210.64 0 -2.04 212.76 0 0 2.04 0 210.68 0 2.03 -212.76 0 0 210.97 -212.71 0 0 -0.34 0 0 0 -210.29 -212.71 0 0 -2.04 0 -210.68zm-850.99 -2.03l212.8 0 0 2.03 0 210.68 0 1.48 212.72 0 0 212.38 212.76 0 0 212.38 212.71 0 0 212.42 212.71 0 0 212.08 212.71 0 0 -0.04 0 -212.37 212.76 0 0 -212.42 212.71 0 0 -212.38 212.72 0 0 -212.46 212.71 0 0 -1.4 0 -210.68 0 -2.04 212.76 0 212.76 0 0 2.04 0 210.68 0 1.4 0 0.63 0 212.16 -212.76 0 0 212.38 -212.76 0 0 212.08 212.76 0 0 212.37 212.76 0 0 212.38 0 0.34 0 212.12 0 0.34 0 212.38 -212.76 0 0 -212.38 -212.76 0 0 -212.46 -212.71 0 0 -212.38 -212.72 0 0 212.03 0 0.34 0 212.12 212.72 0 0 212.38 212.71 0 0 212.71 -212.71 0 0 212.42 -212.72 0 0 212.03 0 0.34 0 212.03 212.72 0 0 -212.38 212.71 0 0 -212.38 212.76 0 0 -212.41 212.76 0 0 212.41 0 0.34 0 212.03 0 0.34 0 212.37 -212.76 0 0 212.46 -212.76 0 0 211.99 212.76 0 0 212.41 212.76 0 0 212.46 0 0.29 0 212.42 -212.76 0 -212.76 0 0 -212.42 -212.71 0 0 -212.41 -212.72 0 0 -212.42 -212.71 0 0 -212.33 -212.76 0 0 -212.08 -212.71 0 0 212.41 -212.71 0 0 212.38 -212.71 0 0 212.38 -212.76 0 0 212.42 -212.72 0 0 212.41 -212.8 0 -212.72 0 0 -212.41 0 -0.3 0 -212.46 212.72 0 0 -212.42 212.8 0 0 -211.99 -212.8 0 0 -212.41 -212.72 0 0 -212.42 0 -0.34 0 -212.04 0 -0.34 0 -212.42 212.72 0 0 212.42 212.8 0 0 212.38 212.72 0 0 212.37 212.76 0 0 -212.03 0 -0.34 0 -212.04 -212.76 0 0 -212.42 -212.72 0 0 -212.71 212.72 0 0 -212.38 212.76 0 0 -212.12 0 -0.34 0 -212.04 -212.76 0 0 212.38 -212.72 0 0 212.46 -212.8 0 0 212.38 -212.72 0 0 -212.38 0 -0.34 0 -212.12 0 -0.34 0 -212.38 212.72 0 0 -212.38 212.8 0 0 -212.08 -212.8 0 0 -212.38 -212.72 0 0 -212.16 0 -0.56 0 -1.48 0 -210.68 0 -2.03 212.72 0zm-1278.93 0l-212.75 0 0 2.03 0 210.68 0 2.04 212.75 0 0 212.16 212.72 0 0 -212.16 212.71 0 0 -2.04 0 -210.68 0 -2.03 -212.71 0 -212.72 0zm1063.62 2.03l0 -2.03 -212.71 0 0 2.03 0 210.68 0 1.48 -212.76 0 0 212.38 -212.71 0 0 212.38 -212.71 0 0 212.71 212.71 0 0 212.42 212.71 0 0 -212.42 212.76 0 0 -212.37 212.71 0 0 -212.38 0 -0.34 0 -211.82 0 -0.56 0 -1.48 0 -210.68zm3834.39 -2.38l212.72 0 0 2.04 0 210.68 0 2.03 -212.72 0 0 212.16 -212.76 0 0 -212.16 -212.71 0 0 -2.03 0 -210.68 0 -2.04 212.71 0 212.76 0zm-1063.7 2.04l0 -2.04 212.71 0 0 2.04 0 210.68 0 1.4 212.8 0 0 212.46 212.71 0 0 212.38 212.71 0 0 212.76 -212.71 0 0 212.38 -212.71 0 0 -212.38 -212.8 0 0 -212.42 -212.71 0 0 -212.38 0 -0.34 0 -211.82 0 -0.63 0 -1.4 0 -210.68zm2127.32 -2.04l212.8 0 0 2.04 0 210.68 0 1.4 212.71 0 0 212.46 208 0 0 -10.7 212.76 0 0 -212.37 212.71 0 0 -1.36 0 -210.76 0 -2 212.8 0 212.71 0 212.76 0 0 2 0 210.76 0 1.36 212.71 0 0 212.37 212.72 0 0 212.51 212.76 0 0 212.76 -212.76 0 0 212.33 -212.72 0 0 -212.33 -212.71 0 0 -212.46 -212.76 0 0 -212.42 -212.71 0 0 212.42 -212.8 0 0 212.08 212.8 0 0 212.33 212.71 0 0 212.38 212.76 0 0 212.76 -212.76 0 0 212.41 -212.71 0 0 -212.41 -212.8 0 0 -212.29 -212.71 0 0 -212.46 -208.05 0 0 10.61 -212.71 0 0 212.38 -212.71 0 0 212.46 -212.8 0 0 212.38 -212.71 0 0 -212.38 -212.71 0 0 -212.8 212.71 0 0 -212.38 212.71 0 0 -212.37 212.8 0 0 -212.08 -212.8 0 0 -212.38 -212.71 0 0 212.38 -212.71 0 0 212.42 -212.76 0 0 212.38 -212.71 0 0 -212.38 -212.72 0 0 -212.76 212.72 0 0 -212.38 212.71 0 0 -212.46 212.76 0 0 -1.4 0 -210.68 0 -2.04 212.71 0 212.71 0zm-6599.85 1701.3l212.76 0 0 -212.38 212.72 0 0 -212.46 212.75 0 0 -212.38 212.72 0 0 212.38 212.71 0 0 212.46 212.71 0 0 212.38 212.76 0 0 212.71 -212.76 0 0 212.42 -212.71 0 0 212.38 -212.71 0 0 212.42 -212.72 0 0 -212.42 -212.75 0 0 -212.38 -212.72 0 0 -212.42 -212.76 0 0 -212.71zm212.76 0.34l0 212.04 212.72 0 0 -212.04 -212.72 0zm425.47 -424.83l0 212.12 212.72 0 0 -212.12 -212.72 0zm0 212.46l-212.75 0 0 212.04 212.75 0 0 -212.04zm425.43 0l-212.71 0 0 212.04 212.71 0 0 -212.04zm425.47 -212.8l212.71 0 0 212.8 -212.71 0 0 -212.8zm-850.9 425.17l0 212.04 212.72 0 0 -212.04 -212.72 0zm0 212.38l-212.75 0 0 212.08 212.75 0 0 -212.08zm425.43 -212.38l0 212.04 212.71 0 0 -212.04 -212.71 0zm0 212.38l-212.71 0 0 212.08 212.71 0 0 -212.08zm-425.43 212.42l0 212.04 212.72 0 0 -212.04 -212.72 0zm850.9 -0.34l212.71 0 0 212.71 -212.71 0 0 -212.71zm-425.47 424.75l212.71 0 0 212.46 212.76 0 0 212.33 212.71 0 0 212.42 0 0.34 0 212.12 0 0.3 0 212.41 -212.71 0 0 -212.41 -212.76 0 0 -212.42 -212.71 0 0 -212.38 -212.71 0 0 -212.71 212.71 0 0 -212.46zm-425.43 637.21l212.72 0 0 212.46 212.71 0 0 212.71 -212.71 0 -212.72 0 -212.75 0 0 -212.71 212.75 0 0 -212.46zm2342.63 -1274.38l-212.71 0 0 -212.04 212.71 0 0 -212.38 212.71 0 0 212.04 212.76 0 0 212.04 -212.76 0 0 212.41 0 0 -212.71 0 0 -212.08zm0 1699.55l-212.71 0 0 -212.71 212.71 0 0 -212.8 212.71 0 0 0.34 0 0 0 212.12 212.76 0 0 212.71 -212.76 0 0 -212.03 -212.71 0 0 212.37zm4044.51 -1699.55l0 212.42 212.71 0 0 -10.61 208.05 0 0 -212.38 212.71 0 0 -212.76 -212.71 0 0 -212.42 -212.76 0 0 10.66 -208 0 0 212.38 -212.71 0 0 212.71 212.71 0zm-425.51 -0.34l-212.71 0 0 212.41 -212.71 0 0 212.72 212.71 0 0 212.37 212.71 0 0 212.46 212.8 0 0 211.99 -212.8 0 0 212.41 -212.71 0 0 -212.41 -212.71 0 0 -212.33 -212.76 0 0 -212.46 -212.71 0 0 212.46 -212.72 0 0 212.67 212.72 0 0 212.42 212.71 0 0 212.41 212.76 0 0 212.42 212.71 0 212.71 0 212.8 0 0 -212.42 212.71 0 0 -212.41 212.71 0 0 -10.61 208.05 0 0 212.41 212.71 0 0 212.42 212.8 0 212.71 0 212.76 0 0 -212.42 212.71 0 0 -212.41 212.72 0 0 -212.46 212.76 0 0 -212.71 -212.76 0 0 -212.33 -212.72 0 0 212.33 -212.71 0 0 212.46 -212.76 0 0 212.37 -212.71 0 0 -212.37 -212.8 0 0 -212.04 212.8 0 0 -212.46 212.71 0 0 -212.41 212.76 0 0 -212.68 -212.76 0 0 -212.46 -212.71 0 0 212.46 -212.8 0 0 212.38 -212.71 0 0 212.42 -212.76 0 0 10.57 -208 0 0 -212.38 -212.71 0 0 -212.38 -212.8 0 0 -212.41zm-425.43 -212.38l-212.76 0 0 -212.38 -212.71 0 0 -212.46 -212.72 0 0 -212.38 -212.76 0 0 212.38 -212.71 0 0 212.46 -212.71 0 0 212.38 -212.8 0 0 212.71 212.8 0 0 212.42 212.71 0 0 212.38 212.71 0 0 212.37 212.76 0 0 -212.37 212.72 0 0 -212.38 212.71 0 0 -212.42 212.76 0 0 -212.71zm-212.76 0.34l0 212.04 -212.71 0 0 -212.04 212.71 0zm-425.43 -424.83l0 212.12 -212.76 0 0 -212.12 212.76 0zm0 212.46l212.72 0 0 212.04 -212.72 0 0 -212.04zm-425.47 0l212.71 0 0 212.04 -212.71 0 0 -212.04zm-425.51 -212.8l-212.71 0 0 212.8 212.71 0 0 -212.8zm850.99 425.18l0 212.04 -212.76 0 0 -212.04 212.76 0zm0 212.38l212.72 0 0 212.08 -212.72 0 0 -212.08zm-425.47 -212.38l0 212.04 -212.71 0 0 -212.04 212.71 0zm0 212.38l212.71 0 0 212.08 -212.71 0 0 -212.08zm425.47 212.42l0 212.03 -212.76 0 0 -212.03 212.76 0zm-850.99 -0.34l-212.71 0 0 212.72 212.71 0 0 -212.72zm425.51 424.75l-212.71 0 0 212.46 -212.8 0 0 212.33 -212.71 0 0 212.41 0 0.34 0 212.12 0 0.29 0 212.42 212.71 0 0 -212.42 212.8 0 0 -212.41 212.71 0 0 -212.42 212.71 0 0 -212.67 -212.71 0 0 -212.46zm425.47 637.21l-212.76 0 0 212.46 -212.71 0 0 212.71 212.71 0 212.76 0 212.72 0 0 -212.71 -212.72 0 0 -212.46zm19579.97 213.14l-212.41 0 0 -11 -0.3 0 0 -201.46 -212.38 0 0 -10.57 -12.44 0 0 212.33 -212.67 0 0 212.46 -212.76 0 -212.76 0 -212.8 0 0 -212.46 -212.67 0 0 -212.33 -212.76 0 0 -212.46 -212.71 0 0 -212.67 212.71 0 0 -212.46 212.76 0 0 212.46 212.67 0 0 212.29 212.8 0 0 212.46 212.76 0 0 -212.46 212.76 0 0 -211.99 -212.76 0 0 -212.46 -212.76 0 0 -212.33 -212.8 0 0 -212.71 212.8 0 0 -212.38 212.76 0 0 212.38 212.76 0 0 212.33 212.67 0 0 212.41 12.1 0 0 -0.29 212.71 0 0 -212.42 212.71 0 0 -212.38 212.76 0 0 -212.46 212.72 0 0 10.95 0.38 0 0 201.51 212.38 0 0 10.96 0.25 0 0 212.71 -212.63 0 0 212.42 -212.76 0 0 212.41 -212.8 0 0 201.08 212.46 0 0 10.91 0.34 0 0 201.46 212.38 0 0 -212.37 212.76 0 0 -212.46 212.76 0 0 -212.33 212.75 0 0 10.91 0.26 0 0 201.42 212.46 0 0 11.04 0.25 0 0 212.67 -212.71 0 0 212.42 -212.71 0 0 212.46 -212.8 0 0 212.37 -212.63 0 -212.76 0 -212.8 0 0 -10.95 -0.3 0 0 -201.42zm17457.66 -3186.35l0 -1.4 0 -210.72 0 -2.08 212.76 0 212.76 0 212.8 0 0 2.08 0 210.72 0 1.4 212.67 0 0 212.41 212.76 0 0 212.38 212.71 0 0 212.71 -212.71 0 0 212.42 -212.76 0 0 -212.42 -212.67 0 0 -212.33 -212.8 0 0 -212.41 -212.76 0 0 212.41 -212.76 0 0 212.04 212.76 0 0 212.33 212.76 0 0 212.42 212.8 0 0 212.8 -212.8 0 0 212.34 -212.76 0 0 -212.34 -212.76 0 0 -212.5 -212.71 0 0 -212.33 -212.76 0 0 -0.38 -12.02 0 0 212.42 -212.71 0 0 212.41 -212.76 0 0 212.42 -212.72 0 0 -10.36 -0.38 0 0 -202.06 -212.38 0 0 -10.23 -0.25 0 0 -212.71 212.63 0 0 -212.46 212.8 0 0 -212.33 212.76 0 0 -201.85 -212.46 0 0 -10.23 -0.3 0 0 -202.14 -212.42 0 0 212.38 -212.76 0 0 212.42 -212.76 0 0 212.33 -212.71 0 0 -10.23 -0.26 0 0 -202.1 -212.5 0 0 -10.28 -0.26 0 0 -212.76 212.76 0 0 -212.38 212.76 0 0 -212.41 212.72 0 0 -1.44 0 -210.72 0 -2.04 212.63 0 212.8 0 212.76 0 0 2.04 0 8.28 0.3 0 0 2 0 201.89 212.41 0 0 10.23 0.3 0 0 202.18 212.46 0 0 10.23 0.26 0 0 0.38 12.06 0 0 -212.41 212.71 0zm-212.71 1486.79l212.71 0 0 212.76 -212.71 0 0 212.38 -212.76 0 0 -0.34 -12.02 0 0 -10.28 -0.3 0 0 -202.19 -212.41 0 0 -10.23 -0.3 0 0 -212.76 212.71 0 0 -212.41 212.76 0 0 10.36 0.26 0 0 0.29 12.06 0 0 212.42zm851.03 0l212.67 0 0 -212.42 212.76 0 0 -212.41 212.71 0 0 -212.42 212.68 0 0 212.42 212.76 0 0 212.41 212.71 0 0 212.42 212.76 0 0 212.76 -212.76 0 0 212.38 -212.71 0 0 212.38 -212.76 0 0 212.42 -212.68 0 0 -212.42 -212.71 0 0 -212.38 -212.76 0 0 -212.38 -212.67 0 0 -212.76zm212.67 0.3l0 212.03 212.76 0 0 -212.03 -212.76 0zm2768.05 -1276.21l0 0.34 212.76 0 0 -210.97 212.71 0 0 -2 0 -210.76 0 -2 -212.71 0 0 2 0 210.64 -212.76 0 0 -210.25 0 -2.08 -212.71 0 0 2.08 0 210.72 0 2.03 212.71 0 0 210.25 0 0zm-1063.62 -425.09l212.71 0 0 2.08 0 210.72 0 1.4 212.8 0 0 212.41 212.71 0 0 212.38 212.68 0 0 212.42 212.71 0 0 212.03 212.76 0 0 0 0 -212.37 212.71 0 0 -212.38 212.76 0 0 212.38 0 0.34 0 212.03 0 0.3 0 212.04 0 0.38 0 212.12 0 0.29 0 212.08 0 0.34 0 212.04 0 0.29 0 212.12 0 0.34 0 212.03 0 0.3 0 212.08 0 0.34 0 212.16 0 0.3 0 212.33 -212.76 0 0 -212.33 -212.71 0 0 -212.08 -212.76 0 0 212.41 -212.71 0 0 212.33 -212.68 0 0 212.42 -212.71 0 0 212.46 -212.8 0 0 212.37 -212.71 0 -212.76 0 0 -212.37 0 -0.34 0 -212.46 212.76 0 0 -212.42 212.71 0 0 -211.99 -212.71 0 0 -212.41 -212.76 0 0 -212.42 0 -0.38 0 -211.99 0 -0.34 0 -212.46 212.76 0 0 212.46 212.71 0 0 212.33 212.8 0 0 212.41 212.71 0 0 -212.03 0 -0.38 0 -211.99 -212.71 0 0 -212.38 -212.8 0 0 -212.76 212.8 0 0 -212.42 212.71 0 0 -212.12 0 -0.29 0 -212.04 -212.71 0 0 212.33 -212.8 0 0 212.5 -212.71 0 0 212.34 -212.76 0 0 -212.34 0 -0.38 0 -212.12 0 -0.29 0 -212.42 212.76 0 0 -212.33 212.71 0 0 -212.04 -212.71 0 0 -212.41 -212.76 0 0 -212.12 0 -0.63 0 -1.4 0 -210.72 0 -2.08 212.76 0zm-1278.97 0l-212.71 0 0 2.08 0 210.72 0 2.03 212.71 0 0 212.12 212.68 0 0 -212.12 212.76 0 0 -2.03 0 -210.72 0 -2.08 -212.76 0 -212.68 0zm1063.66 2.08l0 -2.08 -212.76 0 0 2.08 0 210.72 0 1.4 -212.76 0 0 212.41 -212.71 0 0 212.38 -212.76 0 0 212.71 212.76 0 0 212.42 212.71 0 0 -212.42 212.76 0 0 -212.33 212.76 0 0 -212.41 0 -0.34 0 -211.78 0 -0.63 0 -1.4 0 -210.72zm-425.51 3186.01l-212.71 0 0 -212.42 -212.76 0 0 -212.67 212.76 0 0 -212.46 212.71 0 0 212.46 212.76 0 0 212.33 212.76 0 0 212.42 0 0.34 0 212.12 0 0.34 0 212.37 -212.76 0 0 -212.37 -212.76 0 0 -212.46zm-638.15 -1911.63l0 212.12 212.68 0 0 -212.12 -212.68 0zm0 212.5l-212.71 0 0 212.04 212.71 0 0 -212.04zm425.43 0l-212.76 0 0 212.04 212.76 0 0 -212.04zm425.47 -212.8l212.76 0 0 212.8 -212.76 0 0 -212.8zm-850.9 425.13l0 212.03 212.68 0 0 -212.03 -212.68 0zm0 212.46l-212.71 0 0 212.04 212.71 0 0 -212.04zm425.43 -212.46l0 212.03 212.71 0 0 -212.03 -212.71 0zm0 212.46l-212.76 0 0 212.04 212.76 0 0 -212.04zm-425.43 212.38l0 211.99 212.68 0 0 -211.99 -212.68 0zm850.9 -0.34l212.76 0 0 212.71 -212.76 0 0 -212.71zm-850.9 1061.96l212.68 0 0 212.46 212.76 0 0 212.71 -212.76 0 -212.68 0 -212.71 0 0 -212.71 212.71 0 0 -212.46zm2129.87 -1274.42l0 -212.03 212.71 0 0 -212.34 212.76 0 0 212.04 212.71 0 0 212.04 -212.71 0 0 212.41 0 0 -212.76 0 0 -212.12 -212.71 0zm212.71 1699.6l-212.71 0 0 -212.71 212.71 0 0 -212.8 212.76 0 0 0.34 0 0 0 212.12 212.71 0 0 212.71 -212.71 0 0 -212.03 -212.76 0 0 212.37zm3619.85 -3612.92l212.76 0 0 2.08 0 210.72 0 1.4 212.76 0 0 212.41 212.71 0 0 212.38 212.68 0 0 212.42 212.76 0 0 212.03 212.71 0 0 0 0 -212.37 212.71 0 0 -212.38 202.95 0 0 -212.08 212.67 0 0 -212.41 212.72 0 0 -1.4 0 -210.72 0 -2.08 212.76 0 212.76 0 212.63 0 0 2.08 0 210.72 0 1.4 212.8 0 0 212.41 212.71 0 0 212.38 212.76 0 0 212.71 -212.76 0 0 212.42 -212.71 0 0 -212.42 -212.8 0 0 -212.33 -212.63 0 0 -212.41 -212.76 0 0 212.41 -212.76 0 0 212.04 212.76 0 0 212.33 212.76 0 0 212.42 212.63 0 0 212.8 -212.63 0 0 212.34 -212.76 0 0 -212.34 -212.76 0 0 -212.5 -212.72 0 0 -212.33 -202.82 0 0 211.66 0 0.38 0 212.12 0 0.29 202.82 0 0 212.42 212.72 0 0 212.76 -212.72 0 0 212.38 -202.82 0 0 211.69 0 0.3 0 212.08 0 0.34 202.82 0 0 -212.41 212.72 0 0 -212.33 212.76 0 0 -212.46 212.76 0 0 212.46 212.63 0 0 212.71 -212.63 0 0 212.42 -212.76 0 0 212.41 -212.76 0 0 211.99 212.76 0 0 212.42 212.76 0 0 -212.42 212.63 0 0 -212.33 212.8 0 0 -212.46 212.71 0 0 212.46 212.76 0 0 212.67 -212.76 0 0 212.42 -212.71 0 0 212.46 -212.8 0 0 212.37 -212.63 0 -212.76 0 -212.76 0 0 -212.37 -212.72 0 0 -212.46 -212.67 0 0 -212.42 0 -0.34 -202.95 0 0 -212.33 -212.71 0 0 -212.08 -212.71 0 0 212.41 -212.76 0 0 212.33 -212.68 0 0 212.42 -212.71 0 0 212.46 -212.76 0 0 212.37 -212.76 0 -212.67 0 0 -212.37 0 -0.34 0 -212.46 212.67 0 0 -212.42 212.76 0 0 -211.99 -212.76 0 0 -212.41 -212.67 0 0 -212.42 0 -0.38 0 -211.99 0 -0.34 0 -212.46 212.67 0 0 212.46 212.76 0 0 212.33 212.76 0 0 212.41 212.71 0 0 -212.03 0 -0.38 0 -211.99 -212.71 0 0 -212.38 -212.76 0 0 -212.76 212.76 0 0 -212.42 212.71 0 0 -212.12 0 -0.29 0 -212.04 -212.71 0 0 212.33 -212.76 0 0 212.5 -212.76 0 0 212.34 -212.67 0 0 -212.34 0 -0.38 0 -212.12 0 -0.29 0 -212.42 212.67 0 0 -212.33 212.76 0 0 -212.04 -212.76 0 0 -212.41 -212.67 0 0 -212.12 0 -0.63 0 -1.4 0 -210.72 0 -2.08 212.67 0zm-1278.97 0l-212.71 0 0 2.08 0 210.72 0 2.03 212.71 0 0 212.12 212.76 0 0 -212.12 212.68 0 0 -2.03 0 -210.72 0 -2.08 -212.68 0 -212.76 0zm1063.66 2.08l0 -2.08 -212.76 0 0 2.08 0 210.72 0 1.4 -212.76 0 0 212.41 -212.71 0 0 212.38 -212.68 0 0 212.71 212.68 0 0 212.42 212.71 0 0 -212.42 212.76 0 0 -212.33 212.76 0 0 -212.41 0 -0.34 0 -211.78 0 -0.63 0 -1.4 0 -210.72zm-2127.36 -2.08l-212.76 0 0 2.08 0 210.72 0 1.4 -212.71 0 0 212.41 -212.68 0 0 212.38 0 0.38 0 212.04 0 0.29 0 212.42 212.68 0 0 212.33 212.71 0 0 212.5 212.76 0 0 212.34 212.8 0 0 -212.34 212.76 0 0 -212.8 -212.76 0 0 -212.42 -212.8 0 0 -212.33 -212.76 0 0 -212.04 212.76 0 0 -212.41 212.8 0 0 212.41 212.76 0 0 212.33 212.71 0 0 212.42 212.71 0 0 -212.42 212.71 0 0 -212.71 -212.71 0 0 -212.38 -212.71 0 0 -212.41 -212.71 0 0 -1.4 0 -210.72 0 -2.08 -212.76 0 -212.8 0zm-212.76 3400.55l-212.71 0 0 -212.46 -212.68 0 0 -212.42 0 -0.34 0 -211.99 0 -0.34 0 -212.46 212.68 0 0 -212.41 212.71 0 0 -212.33 212.76 0 0 -212.46 212.8 0 0 212.46 212.76 0 0 212.71 -212.76 0 0 212.42 -212.8 0 0 212.41 -212.76 0 0 211.99 212.76 0 0 212.42 212.8 0 0 -212.42 212.76 0 0 -212.33 212.71 0 0 -212.46 212.71 0 0 212.46 212.71 0 0 212.67 -212.71 0 0 212.42 -212.71 0 0 212.46 -212.71 0 0 212.37 -212.76 0 -212.8 0 -212.76 0 0 -212.37zm-425.39 -1487.22l0 -212.03 0 -0.3 0 -212.42 212.68 0 0 212.42 212.71 0 0 212.76 -212.71 0 0 212.38 -212.68 0 0 -212.38 0 -0.43zm1063.7 -212.33l212.71 0 0 -212.42 212.71 0 0 -212.41 212.71 0 0 -212.42 212.76 0 0 212.42 212.68 0 0 212.41 212.71 0 0 212.42 212.76 0 0 212.76 -212.76 0 0 212.38 -212.71 0 0 212.38 -212.68 0 0 212.42 -212.76 0 0 -212.42 -212.71 0 0 -212.38 -212.71 0 0 -212.38 -212.71 0 0 -212.76zm212.71 0.3l0 212.03 212.71 0 0 -212.03 -212.71 0zm2768.05 -1276.21l0 0.34 212.71 0 0 -210.97 212.71 0 0 -2 0 -210.76 0 -2 -212.71 0 0 2 0 210.64 -212.71 0 0 -210.25 0 -2.08 -212.76 0 0 2.08 0 210.72 0 2.03 212.76 0 0 210.25 0 0zm-2342.63 851.37l0 212.12 212.76 0 0 -212.12 -212.76 0zm0 212.5l-212.71 0 0 212.04 212.71 0 0 -212.04zm425.43 0l-212.68 0 0 212.04 212.68 0 0 -212.04zm425.47 -212.8l212.76 0 0 212.8 -212.76 0 0 -212.8zm-850.9 425.13l0 212.03 212.76 0 0 -212.03 -212.76 0zm0 212.46l-212.71 0 0 212.04 212.71 0 0 -212.04zm425.43 -212.46l0 212.03 212.71 0 0 -212.03 -212.71 0zm0 212.46l-212.68 0 0 212.04 212.68 0 0 -212.04zm-425.43 212.38l0 211.99 212.76 0 0 -211.99 -212.76 0zm850.9 -0.34l212.76 0 0 212.71 -212.76 0 0 -212.71zm-425.47 424.75l212.71 0 0 212.46 212.76 0 0 212.33 212.76 0 0 212.42 0 0.34 0 212.12 0 0.34 0 212.37 -212.76 0 0 -212.37 -212.76 0 0 -212.46 -212.71 0 0 -212.42 -212.68 0 0 -212.67 212.68 0 0 -212.46zm-425.43 637.21l212.76 0 0 212.46 212.68 0 0 212.71 -212.68 0 -212.76 0 -212.71 0 0 -212.71 212.71 0 0 -212.46zm2129.87 -1486.46l212.76 0 0 -212.34 212.71 0 0 212.04 212.71 0 0 212.04 -212.71 0 0 212.41 0 0 -212.71 0 0 -212.12 -212.76 0 0 -212.03zm212.76 1911.63l-212.76 0 0 -212.71 212.76 0 0 -212.8 212.71 0 0 0.34 0 0 0 212.12 212.71 0 0 212.71 -212.71 0 0 -212.03 -212.71 0 0 212.37zm4460.09 -3610.85l0 -2.08 212.76 0 0 2.08 0 210.25 212.71 0 0 -210.64 0 -2 212.71 0 0 2 0 210.76 0 2 -212.71 0 0 210.97 -212.71 0 0 -0.34 0 0 0 -210.25 -212.76 0 0 -2.03 0 -210.72zm-850.99 -2.08l212.84 0 0 2.08 0 210.72 0 1.4 212.71 0 0 212.41 212.71 0 0 212.38 212.72 0 0 212.42 212.76 0 0 212.03 212.71 0 0 0 0 -212.37 212.71 0 0 -212.38 212.76 0 0 -212.46 212.67 0 0 -212.41 212.72 0 0 -1.36 0 -210.76 0 -2 212.76 0 212.76 0 0 2 0 210.76 0 1.36 0 0.63 0 212.16 -212.76 0 0 212.38 -212.76 0 0 212.08 212.76 0 0 212.37 212.76 0 0 212.34 0 0.38 0 212.12 0 0.29 0 212.42 -212.76 0 0 -212.42 -212.76 0 0 -212.41 -212.72 0 0 -212.42 -212.67 0 0 212.04 0 0.38 0 212.12 212.67 0 0 212.38 212.72 0 0 212.67 -212.72 0 0 212.46 -212.67 0 0 212.03 0 0.3 0 212.08 212.67 0 0 -212.38 212.72 0 0 -212.38 212.76 0 0 -212.41 212.76 0 0 212.41 0 0.34 0 212.03 0 0.3 0 212.41 -212.76 0 0 212.46 -212.76 0 0 211.99 212.76 0 0 212.41 212.76 0 0 212.46 0 0.29 0 212.42 -212.76 0 -212.76 0 0 -212.42 -212.72 0 0 -212.41 -212.67 0 0 -212.42 -212.76 0 0 -212.33 -212.71 0 0 -212.08 -212.71 0 0 212.41 -212.76 0 0 212.33 -212.72 0 0 212.42 -212.71 0 0 212.46 -212.71 0 0 212.37 -212.84 0 -212.71 0 0 -212.37 0 -0.34 0 -212.46 212.71 0 0 -212.42 212.84 0 0 -211.99 -212.84 0 0 -212.41 -212.71 0 0 -212.42 0 -0.38 0 -211.99 0 -0.34 0 -212.46 212.71 0 0 212.46 212.84 0 0 212.33 212.71 0 0 212.41 212.71 0 0 -212.03 0 -0.38 0 -211.99 -212.71 0 0 -212.38 -212.71 0 0 -212.76 212.71 0 0 -212.42 212.71 0 0 -212.12 0 -0.29 0 -212.04 -212.71 0 0 212.33 -212.71 0 0 212.5 -212.84 0 0 212.34 -212.71 0 0 -212.34 0 -0.38 0 -212.12 0 -0.29 0 -212.42 212.71 0 0 -212.33 212.84 0 0 -212.04 -212.84 0 0 -212.41 -212.71 0 0 -212.12 0 -0.63 0 -1.4 0 -210.72 0 -2.08 212.71 0zm-1278.92 0l-212.76 0 0 2.08 0 210.72 0 2.03 212.76 0 0 212.12 212.76 0 0 -212.12 212.68 0 0 -2.03 0 -210.72 0 -2.08 -212.68 0 -212.76 0zm1063.66 2.08l0 -2.08 -212.71 0 0 2.08 0 210.72 0 1.4 -212.76 0 0 212.41 -212.76 0 0 212.38 -212.68 0 0 212.71 212.68 0 0 212.42 212.76 0 0 -212.42 212.76 0 0 -212.33 212.71 0 0 -212.41 0 -0.34 0 -211.78 0 -0.63 0 -1.4 0 -210.72zm3834.3 -2.38l212.76 0 0 2 0 210.76 0 2 -212.76 0 0 212.16 -212.67 0 0 -212.16 -212.71 0 0 -2 0 -210.76 0 -2 212.71 0 212.67 0zm-1063.66 2l0 -2 212.71 0 0 2 0 210.76 0 1.36 212.8 0 0 212.41 212.76 0 0 212.46 212.71 0 0 212.71 -212.71 0 0 212.33 -212.76 0 0 -212.33 -212.8 0 0 -212.42 -212.71 0 0 -212.38 0 -0.38 0 -211.78 0 -0.63 0 -1.36 0 -210.76zm2127.32 -2l212.8 0 0 2 0 210.76 0 1.36 212.76 0 0 212.41 212.71 0 0 212.46 0 0.29 0 212.08 0 0.34 0 212.33 -212.71 0 0 212.42 -212.76 0 0 212.41 -212.8 0 0 212.42 -212.71 0 0 -212.42 -212.71 0 0 -212.8 212.71 0 0 -212.34 212.71 0 0 -212.37 212.8 0 0 -212.08 -212.8 0 0 -212.38 -212.71 0 0 212.38 -212.71 0 0 212.42 -212.76 0 0 212.33 -212.72 0 0 -212.33 -212.76 0 0 -212.71 212.76 0 0 -212.46 212.72 0 0 -212.41 212.76 0 0 -1.36 0 -210.76 0 -2 212.71 0 212.71 0zm-6599.9 1701.3l212.8 0 0 -212.42 212.71 0 0 -212.41 212.76 0 0 -212.42 212.76 0 0 212.42 212.68 0 0 212.41 212.76 0 0 212.42 212.76 0 0 212.76 -212.76 0 0 212.38 -212.76 0 0 212.38 -212.68 0 0 212.42 -212.76 0 0 -212.42 -212.76 0 0 -212.38 -212.71 0 0 -212.38 -212.8 0 0 -212.76zm212.8 0.3l0 212.03 212.71 0 0 -212.03 -212.71 0zm425.47 -424.84l0 212.12 212.76 0 0 -212.12 -212.76 0zm0 212.5l-212.76 0 0 212.04 212.76 0 0 -212.04zm425.43 0l-212.68 0 0 212.04 212.68 0 0 -212.04zm425.51 -212.8l212.71 0 0 212.8 -212.71 0 0 -212.8zm-850.95 425.13l0 212.03 212.76 0 0 -212.03 -212.76 0zm0 212.46l-212.76 0 0 212.04 212.76 0 0 -212.04zm425.43 -212.46l0 212.03 212.76 0 0 -212.03 -212.76 0zm0 212.46l-212.68 0 0 212.04 212.68 0 0 -212.04zm-425.43 212.38l0 211.99 212.76 0 0 -211.99 -212.76 0zm850.95 -0.34l212.71 0 0 212.71 -212.71 0 0 -212.71zm-425.51 424.75l212.76 0 0 212.46 212.76 0 0 212.33 212.71 0 0 212.42 0 0.34 0 212.12 0 0.34 0 212.37 -212.71 0 0 -212.37 -212.76 0 0 -212.46 -212.76 0 0 -212.42 -212.68 0 0 -212.67 212.68 0 0 -212.46zm-425.43 637.21l212.76 0 0 212.46 212.68 0 0 212.71 -212.68 0 -212.76 0 -212.76 0 0 -212.71 212.76 0 0 -212.46zm2342.67 -1274.42l-212.76 0 0 -212.03 212.76 0 0 -212.34 212.71 0 0 212.04 212.71 0 0 212.04 -212.71 0 0 212.41 0 0 -212.71 0 0 -212.12zm0 1699.6l-212.76 0 0 -212.71 212.76 0 0 -212.8 212.71 0 0 0.34 0 0 0 212.12 212.71 0 0 212.71 -212.71 0 0 -212.03 -212.71 0 0 212.37zm4044.51 -1699.6l0 212.46 212.71 0 0 -212.46 0 -0.29 0 -212.04 0 -0.34 0 -212.38 -212.71 0 0 212.38 -212.76 0 0 212.67 212.76 0zm-425.56 -0.29l-212.71 0 0 212.41 -212.71 0 0 212.68 212.71 0 0 212.41 212.71 0 0 212.46 212.8 0 0 211.99 -212.8 0 0 212.41 -212.71 0 0 -212.41 -212.71 0 0 -212.29 -212.76 0 0 -212.5 -212.72 0 0 212.5 -212.76 0 0 212.63 212.76 0 0 212.42 212.72 0 0 212.41 212.76 0 0 212.42 212.71 0 212.71 0 212.8 0 0 -212.42 212.76 0 0 -212.41 212.71 0 0 -212.42 0 -0.34 0 -211.99 0 -0.3 0 -212.5 -212.71 0 0 -212.38 -212.76 0 0 -212.38 -212.8 0 0 -212.41zm-425.43 -212.38l-212.76 0 0 -212.38 -212.72 0 0 -212.5 -212.76 0 0 -212.34 -212.67 0 0 212.34 -212.71 0 0 212.5 -212.76 0 0 212.38 -212.8 0 0 212.67 212.8 0 0 212.46 212.76 0 0 212.33 212.71 0 0 212.41 212.67 0 0 -212.41 212.76 0 0 -212.33 212.72 0 0 -212.46 212.76 0 0 -212.67zm-212.76 0.34l0 212.04 -212.72 0 0 -212.04 212.72 0zm-425.48 -424.83l0 212.12 -212.67 0 0 -212.12 212.67 0zm0 212.41l212.76 0 0 212.08 -212.76 0 0 -212.08zm-425.38 0l212.71 0 0 212.08 -212.71 0 0 -212.08zm-425.56 -212.8l-212.71 0 0 212.8 212.71 0 0 -212.8zm850.94 425.22l0 212.04 -212.67 0 0 -212.04 212.67 0zm0 212.33l212.76 0 0 212.12 -212.76 0 0 -212.12zm-425.38 -212.33l0 212.04 -212.76 0 0 -212.04 212.76 0zm0 212.33l212.71 0 0 212.12 -212.71 0 0 -212.12zm425.38 212.46l0 212.03 -212.67 0 0 -212.03 212.67 0zm-850.94 -0.34l-212.71 0 0 212.68 212.71 0 0 -212.68zm425.56 424.75l-212.76 0 0 212.5 -212.8 0 0 212.29 -212.71 0 0 212.41 0 0.34 0 212.12 0 0.29 0 212.42 212.71 0 0 -212.42 212.8 0 0 -212.41 212.76 0 0 -212.42 212.71 0 0 -212.63 -212.71 0 0 -212.5zm425.38 637.21l-212.67 0 0 212.46 -212.71 0 0 212.71 212.71 0 212.67 0 212.76 0 0 -212.71 -212.76 0 0 -212.46zm-32350.12 -3187.41l0.25 0 0 2.08 0 201.13 212.51 0 0 11 0.29 0 0 201.38 212.46 0 0 11.04 0.26 0 0 201.47 212.46 0 0 10.91 0.25 0 0 212.71 -212.71 0 0 212.42 -212.71 0 0 -10.95 -0.29 0 0 -201.47 -212.51 0 0 -10.87 -0.25 0 0 -201.47 -212.38 0 0 -11 -0.38 0 0 -201.42 -212.38 0 0 212.41 -212.8 0 0 201.08 212.46 0 0 10.95 0.34 0 0 201.38 212.38 0 0 10.95 0.38 0 0 201.42 212.38 0 0 11 0.25 0 0 212.8 -212.63 0 0 212.34 -212.76 0 0 -10.96 -0.34 0 0 -201.38 -212.46 0 0 -11.04 -0.3 0 0 -201.47 -212.41 0 0 -10.83 -0.3 0 0 -201.51 -212.38 0 0 -10.61 -12.44 0 0 212.38 -212.67 0 0 212.46 -212.76 0 0 212.29 -212.76 0 0 -212.29 -212.8 0 0 -212.71 212.8 0 0 -212.46 212.76 0 0 -212.33 212.76 0 0 -212.08 -212.76 0 0 -212.41 -212.76 0 0 212.41 -212.8 0 0 212.38 -212.67 0 0 212.38 -212.76 0 0 -212.38 -212.71 0 0 -212.76 212.71 0 0 -212.38 212.76 0 0 -212.41 212.67 0 0 -1.44 0 -210.72 0 -2.04 212.8 0 212.76 0 212.76 0 0 2.04 0 210.72 0 1.44 212.67 0 0 212.41 12.1 0 0 -0.43 212.71 0 0 -212.37 212.71 0 0 -1.36 0 -210.76 0 -2 212.76 0 212.72 0 212.76 0 0 2 0 8.92zm-850.95 1488.58l0.3 0 0 201.47 212.41 0 0 10.95 0.3 0 0 212.76 -212.71 0 0 212.38 -212.68 0 0 -10.61 -12.44 0 0 -212.42 -212.67 0 0 -212.76 212.67 0 0 -212.41 12.1 0 0 -0.3 212.71 0 0 10.95zm1063.7 212.42l0.29 0 0 -10.66 -0.29 0 0 10.66zm212.75 -212.42l0.26 0 0 -10.65 -0.26 0 0 10.65zm212.72 -212.41l0.25 0 0 -10.53 -0.25 0 0 10.53zm212.76 -212.42l0.25 0 0 201.42 212.42 0 0 11 0.3 0 0 201.46 212.46 0 0 10.95 0.26 0 0 201.47 212.5 0 0 10.95 0.21 0 0 212.76 -212.71 0 0 212.38 -212.71 0 0 212.38 -212.72 0 0 212.42 -212.76 0 0 -11 -0.25 0 0 -201.42 -212.46 0 0 -11 -0.26 0 0 -201.38 -212.46 0 0 -10.95 -0.29 0 0 -201.42 -212.51 0 0 -10.95 -0.25 0 0 -212.76 212.76 0 0 -212.42 212.75 0 0 -212.46 212.72 0 0 -212.38 212.76 0 0 10.95zm-637.93 637.55l0 201.08 212.46 0 0 -201.08 -212.46 0zm212.46 212.03l0.26 0 0 -10.53 -0.26 0 0 10.53zm2555.6 -1488.24l0 0.34 212.76 0 0 -210.97 212.76 0 0 -2 0 -210.76 0 -2 -0.34 0 0 -8.28 0 -2.04 -212.72 0 0 2.04 0 210.29 -212.46 0 0 -199.64 0 -2.08 -0.26 0 0 -8.92 0 -2 -212.76 0 0 2 0 210.76 0 2 0.26 0 0 8.96 0 2.03 212.5 0 0 200.02 0.26 0 0 10.23 0 0zm212.76 -220.95l0 8.19 -0.3 0 0 -8.19 0.3 0zm-1063.87 -204.14l0.21 0 0 2.08 0 201.13 212.51 0 0 11 0.25 0 0 201.38 212.46 0 0 11.04 0.25 0 0 201.47 212.42 0 0 10.91 0.26 0 0 201.47 212.5 0 0 10.95 0.26 0 0 201.42 212.46 0 0 -211.99 212.72 0 0 -212.46 212.71 0 0 -212.38 212.76 0 0 -212.41 212.76 0 0 -1.44 0 -210.72 0 -2.04 212.76 0 212.71 0 0 2.04 0 8.58 1.1 0 1.44 0 0 -8.58 0 -2.04 212.76 0 0 2.04 0 210.72 0 1.44 212.71 0 0 212.41 212.76 0 0 212.38 212.76 0 0 212.76 -1.53 0 0 10.57 -211.23 0 0 201.8 -1.53 0 0 10.61 -212.71 0 0 -212.42 -212.68 0 0 -212.33 -212.76 0 0 -212.41 -212.71 0 0 212.41 -212.8 0 0 201.47 211.7 0 0 10.57 1.1 0 0 201.76 211.61 0 0 10.57 1.1 0 0 212.42 1.44 0 0 -10.53 212.76 0 0 212.71 -1.44 0 0 10.61 -212.76 0 0 212.34 -212.71 0 0 -10.66 -1.1 0 0 -201.68 -211.7 0 0 -10.61 -1.06 0 0 -201.89 -211.74 0 0 -10.57 -1.02 0 0 -201.76 -211.7 0 0 -10.61 -0.76 0 0 9.93 0 0.3 0 212.04 0 0.38 0 201.76 212.46 0 0 10.65 1.02 0 0 201.76 211.74 0 0 10.66 1.06 0 0 212.76 -212.8 0 0 212.38 -212.72 0 0 -10.61 -0.76 0 0 9.93 0 0.34 0 212.03 0 0.3 0 201.8 212.46 0 0 -212.41 212.76 0 0 -212.33 212.76 0 0 -212.38 212.71 0 0 10.53 1.1 0 0 212.46 1.44 0 0 -10.61 212.76 0 0 212.71 -1.44 0 0 10.61 -212.76 0 0 212.42 -212.71 0 0 212.41 -212.8 0 0 201.34 211.7 0 0 10.66 1.1 0 0 201.8 211.61 0 0 10.61 1.1 0 0 -212.42 1.44 0 0 -10.66 211.31 0 0 -201.67 1.44 0 0 -10.61 211.23 0 0 -201.85 1.48 0 0 -10.61 212.76 0 0 212.46 212.76 0 0 212.67 -1.53 0 0 10.61 -211.23 0 0 201.85 -1.53 0 0 10.57 -211.23 0 0 201.76 -1.48 0 0 10.7 -211.23 0 0 201.76 -1.44 0 0 10.61 -212.76 0 -212.71 0 -212.8 0 0 -10.61 -1.06 0 0 -201.76 -211.74 0 0 -10.7 -1.02 0 0 -201.76 -211.7 0 0 -10.57 -1.06 0 0 -202.19 -212.38 0 0 -10.28 -0.34 0 0 -202.06 -212.42 0 0 -10.32 -0.3 0 0 -201.76 -212.46 0 0 212.41 -212.76 0 0 212.33 -212.68 0 0 212.42 -212.71 0 0 212.46 -212.76 0 0 212.37 -212.76 0 -212.71 0 0 -10.95 -0.29 0 0 -212.42 0 -0.29 0 -212.46 212.76 0 0 -212.37 212.8 0 0 -201.08 -212.54 0 0 -10.95 -0.25 0 0 -201.46 -212.46 0 0 -11 -0.29 0 0 -212.41 0 -0.3 0 -212.03 0 -0.34 0 -212.46 212.76 0 0 10.95 0.25 0 0 201.51 212.54 0 0 10.96 0.21 0 0 201.42 212.51 0 0 10.91 0.25 0 0 201.51 212.46 0 0 -212.12 0 -0.3 0 -201.08 -212.46 0 0 -10.95 -0.25 0 0 -201.42 -212.51 0 0 -10.95 -0.21 0 0 -212.76 212.72 0 0 -212.42 212.71 0 0 -211.99 0 -0.46 0 -201.04 -212.46 0 0 212.33 -212.76 0 0 212.5 -212.76 0 0 212.34 -212.71 0 0 -10.96 -0.29 0 0 -212.41 0 -0.3 0 -211.99 0 -0.46 0 -212.38 212.76 0 0 -212.33 212.8 0 0 -201.08 -212.54 0 0 -11 -0.25 0 0 -201.42 -212.46 0 0 -11 -0.29 0 0 -212.12 0 -0.63 0 -1.36 0 -210.76 0 -2 212.76 0 212.8 0 0 2 0 8.92zm-1704.22 203.84l0 8.96 0 2.03 212.46 0 0 201.12 0.25 0 0 11 212.76 0 0 -212.12 212.72 0 0 -2.03 0 -210.72 0 -2.08 -0.3 0 0 -8.92 0 -2 -212.67 0 -212.76 0 -212.72 0 0 2 0 210.76 0 2 0.26 0zm1276.38 8.96l0 -210.72 0 -2.08 -0.26 0 0 -8.92 0 -2 -212.71 0 0 2 0 210.76 0 1.36 -212.76 0 0 212.37 -212.76 0 0 212.51 -212.67 0 0 212.76 0.25 0 0 10.87 212.42 0 0 201.47 0.3 0 0 10.95 212.71 0 0 -212.42 212.71 0 0 -212.33 212.76 0 0 -212.41 0 -0.34 0 -211.78 0 -0.63 0 -1.4zm-425.73 2975.29l-212.46 0 0 -10.95 -0.3 0 0 -201.47 -212.42 0 0 -11 -0.25 0 0 -212.71 212.67 0 0 -212.33 212.76 0 0 10.91 0.26 0 0 201.42 212.5 0 0 11.04 0.21 0 0 201.42 212.5 0 0 10.91 0.26 0 0 212.42 0 0.34 0 212.12 0 0.34 0 212.37 -212.76 0 0 -10.95 -0.21 0 0 -201.42 -212.5 0 0 -11 -0.26 0 0 -201.46zm425.47 -1911.93l0.26 0 0 212.8 -212.76 0 0 -11.04 -0.21 0 0 -212.76 212.71 0 0 11zm-1063.41 0.29l0 201.17 212.51 0 0 -201.17 -212.51 0zm212.51 212.12l0.25 0 0 -10.65 -0.25 0 0 10.65zm-212.76 0.38l-212.46 0 0 201.08 212.46 0 0 -201.08zm0 212.04l0.25 0 0 -10.66 -0.25 0 0 10.66zm425.43 -212.04l-212.42 0 0 201.08 212.42 0 0 -201.08zm0 212.04l0.3 0 0 -10.66 -0.3 0 0 10.66zm638.23 424.79l0.26 0 0 212.71 -212.76 0 0 -11 -0.21 0 0 -212.68 212.71 0 0 10.96zm-1063.41 -424.5l0 201.08 212.51 0 0 -201.08 -212.51 0zm212.51 212.03l0.25 0 0 -10.53 -0.25 0 0 10.53zm-212.76 0.43l-212.46 0 0 201.08 212.46 0 0 -201.08zm0 212.04l0.25 0 0 -10.61 -0.25 0 0 10.61zm425.73 -424.5l0 201.08 212.46 0 0 -201.08 -212.46 0zm212.46 212.03l0.26 0 0 -10.53 -0.26 0 0 10.53zm-212.76 0.43l-212.42 0 0 201.08 212.42 0 0 -201.08zm0 212.04l0.3 0 0 -10.61 -0.3 0 0 10.61zm-425.18 0.34l0 201.08 212.51 0 0 -201.08 -212.51 0zm212.51 211.99l0.25 0 0 -10.61 -0.25 0 0 10.61zm0 849.63l0.25 0 0 201.51 212.42 0 0 10.95 0.3 0 0 212.71 -212.72 0 -212.76 0 -212.71 0 0 -10.95 -0.26 0 0 -212.71 212.72 0 0 -212.46 212.76 0 0 10.96zm1917.36 -1285.38l0 -201.08 212.76 0 0 -212.34 212.46 0 0 201.68 0.3 0 0 10.36 212.42 0 0 201.8 -212.72 0 0 212.03 -212.46 0 0 -201.51 -0.26 0 0 -10.95 -212.5 0zm212.76 1710.55l-212.76 0 0 -10.95 -0.26 0 0 -212.71 212.76 0 0 -212.08 0 0 0 -0.38 212.71 0 0 10.61 0.3 0 0 0.34 0 0 0 201.8 212.42 0 0 10.32 0.34 0 0 212.71 -212.76 0 0 -10.28 -0.3 0 0 -201.76 -212.46 0 0 212.37zm-0.26 -212.71l0.26 0 0 -10.28 -0.26 0 0 10.28zm3831.76 -3400.21l1.11 0 0 2.08 0 201.51 211.65 0 0 10.61 1.06 0 0 201.8 211.66 0 0 10.61 1.06 0 0 201.47 201.8 0 0 10.91 10.95 0 0 201.47 201.8 0 0 10.95 10.87 0 0 201.42 201.8 0 0 -211.99 212.72 0 0 -212.46 212.76 0 0 -212.38 212.71 0 0 -212.41 212.71 0 0 -1.44 0 -210.72 0 -2.04 212.76 0 212.71 0 0 2.04 0 8.58 1.02 0 1.57 0 0 -8.58 0 -2.04 212.76 0 0 2.04 0 210.72 0 1.44 212.71 0 0 212.41 212.8 0 0 212.38 212.68 0 0 212.76 -1.49 0 0 10.57 -211.19 0 0 201.8 -1.57 0 0 10.61 -212.71 0 0 -212.42 -212.76 0 0 -212.33 -212.8 0 0 -212.41 -212.67 0 0 212.41 -212.72 0 0 201.47 211.66 0 0 10.57 1.06 0 0 201.76 211.65 0 0 10.57 1.02 0 0 212.42 1.57 0 0 -10.53 212.76 0 0 212.71 -1.53 0 0 10.61 -212.8 0 0 212.34 -212.67 0 0 -10.66 -1.06 0 0 -201.68 -211.66 0 0 -10.61 -1.1 0 0 -201.89 -211.65 0 0 -10.57 -1.06 0 0 -201.76 -201.72 0 0 211.66 0 0.38 0 201.76 201.72 0 0 10.65 1.06 0 0 201.76 211.65 0 0 10.66 1.1 0 0 212.76 -212.75 0 0 212.38 -202.78 0 0 211.69 0 0.3 0 201.8 201.72 0 0 -212.41 212.71 0 0 -212.33 212.76 0 0 -212.38 212.71 0 0 10.53 1.02 0 0 212.46 1.57 0 0 -10.61 212.76 0 0 212.71 -1.53 0 0 10.61 -212.8 0 0 212.42 -212.67 0 0 212.41 -212.72 0 0 201.34 211.66 0 0 10.66 1.06 0 0 201.8 211.65 0 0 10.61 1.02 0 0 -212.42 1.57 0 0 -10.66 211.23 0 0 -201.67 1.53 0 0 -10.61 211.23 0 0 -201.85 1.48 0 0 -10.61 212.8 0 0 212.46 212.68 0 0 212.67 -1.49 0 0 10.61 -211.19 0 0 201.85 -1.57 0 0 10.57 -211.23 0 0 201.76 -1.48 0 0 10.7 -211.23 0 0 201.76 -1.53 0 0 10.61 -212.8 0 -212.67 0 -212.72 0 0 -10.61 -1.1 0 0 -201.76 -211.65 0 0 -10.7 -1.06 0 0 -201.76 -211.66 0 0 -10.57 -1.06 0 0 -202.19 -201.76 0 0 -10.28 -11 0 0 -202.06 -201.76 0 0 -10.32 -10.96 0 0 -201.76 -201.8 0 0 212.41 -212.68 0 0 212.33 -212.76 0 0 212.42 -212.71 0 0 212.46 -212.71 0 0 212.37 -212.76 0 -212.71 0 0 -10.61 -1.06 0 -1.53 0 0 10.61 -212.72 0 0 -212.37 -212.8 0 0 -212.46 -212.76 0 0 -212.42 -212.68 0 0 -212.67 1.49 0 0 -10.61 211.19 0 0 -201.85 1.61 0 0 -10.61 212.71 0 0 212.46 212.71 0 0 212.29 212.76 0 0 212.46 212.67 0 0 -212.46 212.76 0 0 -201.34 -211.65 0 0 -10.66 -1.11 0 0 -201.76 -211.61 0 0 -10.7 -1.06 0 0 -212.33 -1.53 0 0 10.61 -212.72 0 0 -212.71 1.49 0 0 -10.61 212.76 0 0 -212.38 212.67 0 0 10.53 1.11 0 0 201.85 211.65 0 0 10.61 1.11 0 0 201.72 211.65 0 0 10.61 1.06 0 0 201.8 201.72 0 0 -0.29 0 -212.12 0 -0.3 0 -201.08 -201.72 0 0 -10.61 -1.06 0 0 -201.76 -211.65 0 0 -10.66 -1.11 0 0 -212.76 212.76 0 0 -212.41 202.78 0 0 -0.3 0 -211.99 0 -0.46 0 -201.04 -201.72 0 0 212.33 -212.71 0 0 212.5 -212.76 0 0 212.34 -212.71 0 0 -10.66 -1.06 0 0 -212.29 -1.53 0 0 10.61 -212.72 0 0 -212.8 1.49 0 0 -10.53 212.76 0 0 -212.46 212.67 0 0 -212.33 212.76 0 0 -201.47 -211.65 0 0 -10.61 -1.11 0 0 -201.8 -211.61 0 0 -10.61 -1.06 0 0 212.41 -1.53 0 0 10.61 -211.23 0 0 201.76 -1.49 0 0 10.57 -211.23 0 0 201.8 -1.57 0 0 10.61 -212.76 0 0 -212.42 -212.68 0 0 -212.71 1.49 0 0 -10.61 211.19 0 0 -201.76 1.61 0 0 -10.61 211.14 0 0 -201.8 1.57 0 0 -10.61 211.23 0 0 -201.51 0 -2.08 1.49 0 0 -8.58 0 -2.04 212.76 0 212.67 0 212.76 0 0 2.04 0 8.58zm-1701.85 0l-1.53 0 0 2.08 0 210.72 0 2.03 212.76 0 0 212.12 212.71 0 0 -10.61 1.49 0 0 -201.51 211.19 0 0 -2.03 0 -8.66 1.61 0 0 -2 0 -210.72 0 -2.04 -212.8 0 -212.68 0 -212.76 0 0 2.04 0 8.58zm-426.92 1701l1.44 0 0 -10.66 211.23 0 0 -201.76 1.48 0 0 -10.65 211.23 0 0 -201.76 1.53 0 0 -10.53 211.23 0 0 -201.89 1.53 0 0 -10.57 212.68 0 0 212.46 212.8 0 0 212.29 212.71 0 0 212.41 212.71 0 0 212.76 -1.49 0 0 10.66 -211.23 0 0 201.76 -1.57 0 0 10.61 -211.14 0 0 201.76 -1.61 0 0 10.61 -211.19 0 0 201.72 -1.49 0 0 10.7 -212.71 0 0 -212.42 -212.76 0 0 -212.38 -212.71 0 0 -212.38 -212.68 0 0 -212.76zm850.86 -435.11l0 10.28 1.49 0 0 -10.28 -1.49 0zm212.68 212.46l0 10.23 1.61 0 0 -10.23 -1.61 0zm212.76 212.29l0 10.36 1.57 0 0 -10.36 -1.57 0zm-1063.62 212.46l0 10.23 1.48 0 0 -10.23 -1.48 0zm212.71 -0.29l0 -201.51 -211.23 0 0 201.51 211.23 0zm2555.34 -1477.71l0 0.34 212.76 0 0 -210.97 212.76 0 0 -2 0 -210.76 0 -2 -11 0 0 -8.28 0 -2.04 -212.72 0 0 2.04 0 210.29 -201.8 0 0 -199.64 0 -2.08 -10.87 0 0 -8.92 0 -2 -212.76 0 0 2 0 210.76 0 2 10.95 0 0 8.96 0 2.03 201.8 0 0 200.02 10.87 0 0 10.23 0 0zm212.76 -220.95l0 8.19 -10.91 0 0 -8.19 10.91 0zm-2555.34 1274.21l0 10.23 1.53 0 0 -10.23 -1.53 0zm212.71 -0.42l0 -201.47 -211.19 0 0 201.47 211.19 0zm-212.71 11.04l-211.23 0 0 201.38 211.23 0 0 -201.38zm-212.76 201.68l0 10.36 1.53 0 0 -10.36 -1.53 0zm638.15 -201.68l-211.19 0 0 201.38 211.19 0 0 -201.38zm-212.68 201.68l0 10.36 1.49 0 0 -10.36 -1.49 0zm-212.71 212.46l0 10.23 1.53 0 0 -10.23 -1.53 0zm212.71 -0.29l0 -201.51 -211.19 0 0 201.51 211.19 0zm-212.71 10.95l-211.23 0 0 201.42 211.23 0 0 -201.42zm-212.76 201.76l0 10.28 1.53 0 0 -10.28 -1.53 0zm638.15 -212.42l0 10.23 1.61 0 0 -10.23 -1.61 0zm212.76 -0.29l0 -201.51 -211.14 0 0 201.51 211.14 0zm-212.76 10.95l-211.19 0 0 201.42 211.19 0 0 -201.42zm-212.68 201.76l0 10.28 1.49 0 0 -10.28 -1.49 0zm-212.71 212.38l0 10.23 1.53 0 0 -10.23 -1.53 0zm212.71 -0.38l0 -201.38 -211.19 0 0 201.38 211.19 0zm-212.71 860.24l1.53 0 0 -10.61 212.68 0 0 212.41 212.8 0 0 212.76 -1.61 0 0 10.61 -212.68 0 -212.71 0 -212.76 0 0 -212.71 1.53 0 0 -10.66 211.23 0 0 -201.8zm2129.91 -1486.46l212.68 0 0 -212.34 201.8 0 0 201.68 10.96 0 0 10.36 201.76 0 0 201.8 -212.72 0 0 212.03 -201.8 0 0 -201.51 -10.87 0 0 -10.95 -201.8 0 0 -201.08zm212.68 1911.63l-212.68 0 0 -10.95 -10.95 0 0 -212.71 212.76 0 0 -212.08 0 0 0 -0.38 212.71 0 0 10.61 10.91 0 0 0.34 0 0 0 201.8 201.76 0 0 10.32 11 0 0 212.71 -212.76 0 0 -10.28 -10.96 0 0 -201.76 -201.8 0 0 212.37zm-10.87 -212.71l10.87 0 0 -10.28 -10.87 0 0 10.28zm4471 -3187.41l0 -8.96 -0.29 0 0 -2 0 -210.76 0 -2 212.76 0 0 2 0 8.92 0.26 0 0 2.08 0 199.64 212.46 0 0 -210.29 0 -2.04 212.76 0 0 2.04 0 8.28 0.26 0 0 2 0 210.76 0 2 -212.76 0 0 210.97 -212.71 0 0 -0.34 0 0 0 -10.23 -0.3 0 0 -200.02 -212.42 0 0 -2.03zm425.18 -0.47l0.26 0 0 -8.19 -0.26 0 0 8.19zm-1064.42 -212.33l1.06 0 0 2.08 0 201.51 211.65 0 0 10.61 1.11 0 0 201.8 211.65 0 0 10.61 1.06 0 0 201.47 212.42 0 0 10.91 0.29 0 0 201.47 212.46 0 0 10.95 0.26 0 0 201.42 212.46 0 0 -211.99 212.76 0 0 -212.46 212.67 0 0 -212.38 212.8 0 0 -212.41 212.68 0 0 -1.44 0 -210.72 0 -2.04 212.76 0 212.63 0 0 2.04 0 8.28 0.34 0 0 2 0 210.76 0 1.36 0 0.63 0 212.16 -212.72 0 0 212.38 -212.76 0 0 201.85 212.51 0 0 10.23 0.25 0 0 202.1 212.38 0 0 10.27 0.34 0 0 212.34 0 0.38 0 212.12 0 0.29 0 212.42 -212.72 0 0 -10.36 -0.25 0 0 -202.06 -212.51 0 0 -10.23 -0.25 0 0 -202.18 -212.51 0 0 -10.28 -0.17 0 0 -202.14 -212.54 0 0 212.04 0 0.38 0 201.76 212.54 0 0 10.36 0.17 0 0 202.06 212.51 0 0 10.32 0.25 0 0 212.67 -212.76 0 0 212.46 -212.71 0 0 212.03 0 0.3 0 201.8 212.54 0 0 -212.41 212.68 0 0 -212.33 212.76 0 0 -212.38 212.63 0 0 10.23 0.34 0 0 212.41 0 0.34 0 212.03 0 0.3 0 212.41 -212.72 0 0 212.46 -212.76 0 0 201.67 212.51 0 0 10.32 0.25 0 0 202.14 212.38 0 0 10.27 0.34 0 0 212.46 0 0.29 0 212.42 -212.72 0 -212.76 0 0 -10.28 -0.25 0 0 -202.14 -212.51 0 0 -10.32 -0.17 0 0 -202.1 -212.54 0 0 -10.23 -0.26 0 0 -202.19 -212.41 0 0 -10.28 -0.26 0 0 -202.06 -212.5 0 0 -10.32 -0.26 0 0 -201.76 -212.46 0 0 212.41 -212.72 0 0 212.33 -212.71 0 0 212.42 -212.71 0 0 212.46 -212.76 0 0 212.37 -212.76 0 -212.8 0 0 -10.61 -1.02 0 -1.57 0 0 10.61 -212.67 0 0 -212.37 -212.72 0 0 -212.46 -212.76 0 0 -212.42 -212.71 0 0 -212.67 1.61 0 0 -10.61 211.1 0 0 -201.85 1.53 0 0 -10.61 212.71 0 0 212.46 212.67 0 0 212.29 212.8 0 0 212.46 212.71 0 0 -212.46 212.8 0 0 -201.34 -211.69 0 0 -10.66 -1.11 0 0 -201.76 -211.69 0 0 -10.7 -1.02 0 0 -212.33 -1.57 0 0 10.61 -212.67 0 0 -212.71 1.44 0 0 -10.61 212.8 0 0 -212.38 212.71 0 0 10.53 1.11 0 0 201.85 211.69 0 0 10.61 1.06 0 0 201.72 211.65 0 0 10.61 1.11 0 0 201.8 211.65 0 0 10.61 0.81 0 0 -10.61 0 -0.29 0 -212.12 0 -0.3 0 -201.08 -212.46 0 0 -10.61 -1.11 0 0 -201.76 -211.65 0 0 -10.66 -1.06 0 0 -212.76 212.71 0 0 -212.41 212.76 0 0 10.65 0.81 0 0 -10.65 0 -0.3 0 -211.99 0 -0.46 0 -201.04 -212.46 0 0 212.33 -212.76 0 0 212.5 -212.76 0 0 212.34 -212.8 0 0 -10.66 -1.02 0 0 -212.29 -1.57 0 0 10.61 -212.67 0 0 -212.8 1.44 0 0 -10.53 212.8 0 0 -212.46 212.71 0 0 -212.33 212.8 0 0 -201.47 -211.69 0 0 -10.61 -1.11 0 0 -201.8 -211.69 0 0 -10.61 -1.02 0 0 212.41 -1.57 0 0 10.61 -211.23 0 0 201.76 -1.44 0 0 10.57 -211.23 0 0 201.8 -1.49 0 0 10.61 -212.76 0 0 -212.42 -212.71 0 0 -212.71 1.61 0 0 -10.61 211.1 0 0 -201.76 1.53 0 0 -10.61 211.23 0 0 -201.8 1.49 0 0 -10.61 211.23 0 0 -201.51 0 -2.08 1.44 0 0 -8.58 0 -2.04 212.8 0 212.71 0 212.8 0 0 2.04 0 8.58zm-1701.85 0l-1.57 0 0 2.08 0 210.72 0 2.03 212.76 0 0 212.12 212.71 0 0 -10.61 1.61 0 0 -201.51 211.1 0 0 -2.03 0 -8.66 1.53 0 0 -2 0 -210.72 0 -2.04 -212.63 0 -212.84 0 -212.68 0 0 2.04 0 8.58zm5321.65 -0.3l0.26 0 0 2 0 210.76 0 2 -212.76 0 0 212.16 -212.76 0 0 -10.27 -0.25 0 0 -201.89 -212.42 0 0 -2 0 -8.32 -0.3 0 0 -2 0 -210.72 0 -2.04 212.72 0 212.75 0 212.76 0 0 2.04 0 8.28zm-1063.66 0l0.26 0 0 2 0 201.89 212.46 0 0 10.23 0.3 0 0 202.18 212.41 0 0 10.23 0.3 0 0 202.14 212.42 0 0 10.32 0.25 0 0 212.71 -212.67 0 0 212.33 -212.71 0 0 -10.23 -0.3 0 0 -202.1 -212.46 0 0 -10.28 -0.26 0 0 -202.14 -212.5 0 0 -10.23 -0.26 0 0 -212.41 0 -0.34 0 -211.86 0 -0.55 0 -1.44 0 -210.72 0 -2.04 212.76 0 0 2.04 0 8.28zm-4685.04 1701.3l1.53 0 0 -10.66 211.23 0 0 -201.76 1.48 0 0 -10.65 211.23 0 0 -201.76 1.57 0 0 -10.53 211.19 0 0 -201.89 1.49 0 0 -10.57 212.84 0 0 212.46 212.63 0 0 212.29 212.71 0 0 212.41 212.67 0 0 212.76 -1.44 0 0 10.66 -211.23 0 0 201.76 -1.49 0 0 10.61 -211.23 0 0 201.76 -1.53 0 0 10.61 -211.1 0 0 201.72 -1.61 0 0 10.7 -212.71 0 0 -212.42 -212.76 0 0 -212.38 -212.71 0 0 -212.38 -212.76 0 0 -212.76zm850.94 -435.11l0 10.28 1.61 0 0 -10.28 -1.61 0zm212.71 212.46l0 10.23 1.53 0 0 -10.23 -1.53 0zm212.76 212.29l0 10.36 1.49 0 0 -10.36 -1.49 0zm-1063.66 212.46l0 10.23 1.48 0 0 -10.23 -1.48 0zm212.71 -0.29l0 -201.51 -211.23 0 0 201.51 211.23 0zm212.76 -424.46l0 10.23 1.49 0 0 -10.23 -1.49 0zm212.71 -0.42l0 -201.47 -211.23 0 0 201.47 211.23 0zm-212.71 11.04l-211.19 0 0 201.38 211.19 0 0 -201.38zm-212.76 201.68l0 10.36 1.57 0 0 -10.36 -1.57 0zm638.19 -201.68l-211.1 0 0 201.38 211.1 0 0 -201.38zm-212.71 201.68l0 10.36 1.61 0 0 -10.36 -1.61 0zm-212.71 212.46l0 10.23 1.49 0 0 -10.23 -1.49 0zm212.71 -0.29l0 -201.51 -211.23 0 0 201.51 211.23 0zm-212.71 10.95l-211.19 0 0 201.42 211.19 0 0 -201.42zm-212.76 201.76l0 10.28 1.57 0 0 -10.28 -1.57 0zm638.19 -212.42l0 10.23 1.53 0 0 -10.23 -1.53 0zm212.76 -0.29l0 -201.51 -211.23 0 0 201.51 211.23 0zm-212.76 10.95l-211.1 0 0 201.42 211.1 0 0 -201.42zm-212.71 201.76l0 10.28 1.61 0 0 -10.28 -1.61 0zm-212.71 212.38l0 10.23 1.49 0 0 -10.23 -1.49 0zm212.71 -0.38l0 -201.38 -211.23 0 0 201.38 211.23 0zm-212.71 860.24l1.49 0 0 -10.61 212.84 0 0 212.41 212.63 0 0 212.76 -1.53 0 0 10.61 -212.71 0 -212.71 0 -212.76 0 0 -212.71 1.57 0 0 -10.66 211.19 0 0 -201.8zm2342.63 -1274.42l-0.26 0 0 -10.95 -212.46 0 0 -201.08 212.72 0 0 -212.34 212.46 0 0 201.68 0.26 0 0 10.36 212.5 0 0 201.8 -212.76 0 0 212.03 -212.46 0 0 -201.51zm0 1699.6l-212.72 0 0 -10.95 -0.29 0 0 -212.71 212.71 0 0 -212.08 0.04 0 0 -0.38 212.71 0 0 10.61 0.26 0 0 0.34 0 0 0 201.8 212.5 0 0 10.32 0.26 0 0 212.71 -212.76 0 0 -10.28 -0.26 0 0 -201.76 -212.46 0 0 212.37zm-0.26 -212.71l0.26 0 0 -10.28 -0.26 0 0 10.28zm3193.82 -1699.55l-0.25 0 0 -10.32 -212.51 0 0 -202.06 -0.21 0 0 -10.36 -212.5 0 0 -202.14 -0.26 0 0 -10.15 -212.5 0 0 -202.19 -0.26 0 0 -10.27 -212.75 0 0 212.46 -212.72 0 0 212.29 -212.71 0 0 212.41 -212.71 0 0 212.76 0.26 0 0 10.23 212.46 0 0 202.19 0.3 0 0 10.28 212.41 0 0 202.1 0.3 0 0 10.23 212.42 0 0 202.1 0.25 0 0 10.32 212.76 0 0 -212.41 212.76 0 0 -212.33 212.71 0 0 -212.46 212.76 0 0 -212.67zm-850.99 -434.77l0 9.89 -0.25 0 0 -9.89 0.25 0zm-212.67 212.46l0 9.94 -0.3 0 0 -9.94 0.3 0zm-212.71 212.29l0 10.02 -0.3 0 0 -10.02 0.3 0zm1063.61 212.46l0 9.94 -0.21 0 0 -9.94 0.21 0zm-212.71 -0.29l0 -201.8 212.5 0 0 201.8 -212.5 0zm-1063.66 -627.02l-0.26 0 0 -10.15 -212.76 0 0 212.71 0.26 0 0 10.23 212.76 0 0 -212.8zm850.9 202.56l0 9.94 -0.26 0 0 -9.94 0.26 0zm-212.76 -0.42l0 -201.76 212.5 0 0 201.76 -212.5 0zm212.76 10.65l212.5 0 0 201.76 -212.5 0 0 -201.76zm212.76 202.06l0 10.02 -0.26 0 0 -10.02 0.26 0zm-638.19 -202.06l212.42 0 0 201.76 -212.42 0 0 -201.76zm212.67 202.06l0 10.02 -0.25 0 0 -10.02 0.25 0zm-638.14 434.81l-0.26 0 0 -10.27 -212.76 0 0 212.71 0.26 0 0 10.23 212.76 0 0 -212.68zm850.9 -222.35l0 9.94 -0.26 0 0 -9.94 0.26 0zm-212.76 -0.29l0 -201.8 212.5 0 0 201.8 -212.5 0zm212.76 10.53l212.5 0 0 201.85 -212.5 0 0 -201.85zm212.76 202.19l0 9.93 -0.26 0 0 -9.93 0.26 0zm-638.19 -212.42l0 9.94 -0.3 0 0 -9.94 0.3 0zm-212.71 -0.29l0 -201.8 212.41 0 0 201.8 -212.41 0zm212.71 10.53l212.42 0 0 201.85 -212.42 0 0 -201.85zm212.67 202.19l0 9.93 -0.25 0 0 -9.93 0.25 0zm212.76 212.38l0 9.93 -0.26 0 0 -9.93 0.26 0zm-212.76 -0.38l0 -201.72 212.5 0 0 201.72 -212.5 0zm-212.67 222.69l-0.3 0 0 -10.28 -212.71 0 0 212.46 -212.71 0 0 212.29 -212.76 0 0 212.46 0 0.38 0 212.03 0 0.3 0 212.46 0.26 0 0 10.28 212.76 0 0 -212.42 212.76 0 0 -212.41 212.71 0 0 -212.42 212.67 0 0 -212.63 -0.25 0 0 -10.32 -212.42 0 0 -202.19zm425.43 637.21l-0.26 0 0 -10.27 -212.75 0 0 212.41 -212.72 0 0 212.76 0.3 0 0 10.28 212.67 0 212.76 0 212.76 0 0 -212.71 -0.26 0 0 -10.32 -212.5 0 0 -202.14zm-16819.51 -1497.07l-212.67 0 0 -212.41 -212.76 0 0 -212.29 -212.71 0 0 -212.46 -212.68 0 0 212.46 -212.76 0 0 212.29 -212.71 0 0 212.41 -212.76 0 0 212.76 212.76 0 0 212.42 212.71 0 0 212.38 212.76 0 0 212.33 212.68 0 0 -212.33 212.71 0 0 -212.38 212.76 0 0 -212.42 212.67 0 0 -212.76zm-212.67 0.3l0 212.16 -212.76 0 0 -212.16 212.76 0zm-2768.05 -1276.16l0 0.38 -212.76 0 0 -211.02 -212.71 0 0 -2 0 -210.76 0 -2 212.71 0 0 2 0 210.64 212.76 0 0 -210.29 0 -2.04 212.71 0 0 2.04 0 210.72 0 2 -212.71 0 0 210.34 0 0zm1063.53 -425.09l-212.63 0 0 2.04 0 210.72 0 1.44 -212.71 0 0 212.41 -212.8 0 0 212.38 -212.67 0 0 212.46 -212.71 0 0 211.99 -212.76 0 0 -0.04 0 -212.33 -212.71 0 0 -212.38 -212.76 0 0 212.38 0 0.38 0 211.95 0 0.38 0 211.99 0 0.46 0 211.99 0 0.3 0 212.12 0 0.29 0 212.04 0 0.43 0 212.03 0 0.34 0 212.03 0 0.3 0 212.12 0 0.29 0 212.04 0 0.43 0 212.29 212.76 0 0 -212.29 212.71 0 0 -212.04 212.76 0 0 212.33 212.71 0 0 212.38 212.67 0 0 212.46 212.8 0 0 212.33 212.71 0 0 212.46 212.63 0 212.84 0 0 -212.46 0 -0.3 0 -212.41 -212.84 0 0 -212.46 -212.63 0 0 -211.99 212.63 0 0 -212.46 212.84 0 0 -212.33 0 -0.38 0 -211.99 0 -0.34 0 -212.38 -212.84 0 0 212.38 -212.63 0 0 212.33 -212.71 0 0 212.41 -212.8 0 0 -212.03 0 -0.38 0 -211.99 212.8 0 0 -212.42 212.71 0 0 -212.76 -212.71 0 0 -212.41 -212.8 0 0 -212.04 0 -0.26 0 -212.12 212.8 0 0 212.38 212.71 0 0 212.46 212.63 0 0 212.29 212.84 0 0 -212.29 0 -0.42 0 -212.04 0 -0.26 0 -212.46 -212.84 0 0 -212.33 -212.63 0 0 -212.08 212.63 0 0 -212.41 212.84 0 0 -212.21 0 -0.55 0 -1.44 0 -210.72 0 -2.04 -212.84 0zm1279.05 0l212.71 0 0 2.04 0 210.72 0 2 -212.71 0 0 212.21 -212.68 0 0 -212.21 -212.76 0 0 -2 0 -210.72 0 -2.04 212.76 0 212.68 0zm-1063.66 2.04l0 -2.04 212.76 0 0 2.04 0 210.72 0 1.44 212.76 0 0 212.41 212.71 0 0 212.38 212.76 0 0 212.76 -212.76 0 0 212.38 -212.71 0 0 -212.38 -212.76 0 0 -212.38 -212.76 0 0 -212.41 0 -0.34 0 -211.86 0 -0.55 0 -1.44 0 -210.72zm425.51 3186.1l212.71 0 0 -212.46 212.76 0 0 -212.67 -212.76 0 0 -212.46 -212.71 0 0 212.46 -212.76 0 0 212.29 -212.76 0 0 212.46 0 0.38 0 212.03 0 0.3 0 212.46 212.76 0 0 -212.46 212.76 0 0 -212.33zm638.15 -1911.63l0 212.04 -212.68 0 0 -212.04 212.68 0zm0 212.46l212.71 0 0 211.99 -212.71 0 0 -211.99zm-425.43 0l212.76 0 0 211.99 -212.76 0 0 -211.99zm-425.47 -212.71l-212.76 0 0 212.71 212.76 0 0 -212.71zm850.9 425.01l0 212.16 -212.68 0 0 -212.16 212.68 0zm0 212.46l212.71 0 0 212.08 -212.71 0 0 -212.08zm-425.43 -212.46l0 212.16 -212.71 0 0 -212.16 212.71 0zm0 212.46l212.76 0 0 212.08 -212.76 0 0 -212.08zm425.43 212.42l0 211.99 -212.68 0 0 -211.99 212.68 0zm-850.9 -0.34l-212.76 0 0 212.71 212.76 0 0 -212.71zm850.9 1061.96l-212.68 0 0 212.41 -212.76 0 0 212.76 212.76 0 212.68 0 212.71 0 0 -212.76 -212.71 0 0 -212.41zm-2129.87 -1274.34l0 -212.16 -212.71 0 0 -212.29 -212.76 0 0 211.99 -212.71 0 0 212.04 212.71 0 0 212.46 0 0 212.76 0 0 -212.03 212.71 0zm-212.71 1699.51l212.71 0 0 -212.76 -212.71 0 0 -212.76 -212.76 0 0 0.38 0 0 0 212.08 -212.71 0 0 212.71 212.71 0 0 -212.04 212.76 0 0 212.38zm-3619.8 -3612.92l-212.76 0 0 2.04 0 210.72 0 1.44 -212.8 0 0 212.41 -212.71 0 0 212.38 -212.68 0 0 212.46 -212.76 0 0 211.99 -212.71 0 0 -0.04 0 -212.33 -212.71 0 0 -212.38 -202.95 0 0 -212.08 -212.71 0 0 -212.41 -212.76 0 0 -1.44 0 -210.72 0 -2.04 -212.68 0 -212.67 0 -212.84 0 0 2.04 0 210.72 0 1.44 -212.67 0 0 212.41 -212.71 0 0 212.38 -212.72 0 0 212.76 212.72 0 0 212.38 212.71 0 0 -212.38 212.67 0 0 -212.38 212.84 0 0 -212.41 212.67 0 0 212.41 212.68 0 0 212.08 -212.68 0 0 212.33 -212.67 0 0 212.46 -212.84 0 0 212.71 212.84 0 0 212.29 212.67 0 0 -212.29 212.68 0 0 -212.46 212.76 0 0 -212.38 202.86 0 0 211.66 0 0.46 0 211.99 0 0.3 -202.86 0 0 212.41 -212.76 0 0 212.76 212.76 0 0 212.42 202.86 0 0 211.69 0 0.3 0 212.12 0 0.29 -202.86 0 0 -212.41 -212.76 0 0 -212.33 -212.68 0 0 -212.38 -212.67 0 0 212.38 -212.84 0 0 212.71 212.84 0 0 212.33 212.67 0 0 212.46 212.68 0 0 211.99 -212.68 0 0 212.46 -212.67 0 0 -212.46 -212.84 0 0 -212.29 -212.67 0 0 -212.46 -212.71 0 0 212.46 -212.72 0 0 212.67 212.72 0 0 212.46 212.71 0 0 212.33 212.67 0 0 212.46 212.84 0 212.67 0 212.68 0 0 -212.46 212.76 0 0 -212.33 212.71 0 0 -212.46 0 -0.38 202.95 0 0 -212.29 212.71 0 0 -212.04 212.71 0 0 212.33 212.76 0 0 212.38 212.68 0 0 212.46 212.71 0 0 212.33 212.8 0 0 212.46 212.76 0 212.71 0 0 -212.46 0 -0.3 0 -212.41 -212.71 0 0 -212.46 -212.76 0 0 -211.99 212.76 0 0 -212.46 212.71 0 0 -212.33 0 -0.38 0 -211.99 0 -0.34 0 -212.38 -212.71 0 0 212.38 -212.76 0 0 212.33 -212.8 0 0 212.41 -212.71 0 0 -212.03 0 -0.38 0 -211.99 212.71 0 0 -212.42 212.8 0 0 -212.76 -212.8 0 0 -212.41 -212.71 0 0 -212.04 0 -0.26 0 -212.12 212.71 0 0 212.38 212.8 0 0 212.46 212.76 0 0 212.29 212.71 0 0 -212.29 0 -0.42 0 -212.04 0 -0.26 0 -212.46 -212.71 0 0 -212.33 -212.76 0 0 -212.08 212.76 0 0 -212.41 212.71 0 0 -212.21 0 -0.55 0 -1.44 0 -210.72 0 -2.04 -212.71 0zm1278.92 0l212.71 0 0 2.04 0 210.72 0 2 -212.71 0 0 212.21 -212.76 0 0 -212.21 -212.68 0 0 -2 0 -210.72 0 -2.04 212.68 0 212.76 0zm-1063.66 2.04l0 -2.04 212.71 0 0 2.04 0 210.72 0 1.44 212.8 0 0 212.41 212.71 0 0 212.38 212.68 0 0 212.76 -212.68 0 0 212.38 -212.71 0 0 -212.38 -212.8 0 0 -212.38 -212.71 0 0 -212.41 0 -0.34 0 -211.86 0 -0.55 0 -1.44 0 -210.72zm2127.32 -2.04l212.71 0 0 2.04 0 210.72 0 1.44 212.8 0 0 212.41 212.68 0 0 212.38 0 0.38 0 212.08 0 0.29 0 212.38 -212.68 0 0 212.38 -212.8 0 0 212.46 -212.71 0 0 212.29 -212.76 0 0 -212.29 -212.67 0 0 -212.71 212.67 0 0 -212.46 212.76 0 0 -212.33 212.71 0 0 -212.08 -212.71 0 0 -212.41 -212.76 0 0 212.41 -212.67 0 0 212.38 -212.76 0 0 212.38 -212.76 0 0 -212.38 -212.71 0 0 -212.76 212.71 0 0 -212.38 212.76 0 0 -212.41 212.76 0 0 -1.44 0 -210.72 0 -2.04 212.67 0 212.76 0zm212.71 3400.47l212.8 0 0 -212.33 212.68 0 0 -212.46 0 -0.38 0 -211.99 0 -0.29 0 -212.46 -212.68 0 0 -212.41 -212.8 0 0 -212.33 -212.71 0 0 -212.38 -212.76 0 0 212.38 -212.67 0 0 212.71 212.67 0 0 212.33 212.76 0 0 212.46 212.71 0 0 211.99 -212.71 0 0 212.46 -212.76 0 0 -212.46 -212.67 0 0 -212.29 -212.76 0 0 -212.46 -212.76 0 0 212.46 -212.71 0 0 212.67 212.71 0 0 212.46 212.76 0 0 212.33 212.76 0 0 212.46 212.67 0 212.76 0 212.71 0 0 -212.46zm425.48 -1487.05l0 -212.16 0 -0.3 0 -212.41 -212.68 0 0 212.41 -212.8 0 0 212.76 212.8 0 0 212.42 212.68 0 0 -212.42 0 -0.29zm-1063.62 -212.46l-212.76 0 0 -212.41 -212.76 0 0 -212.29 -212.71 0 0 -212.46 -212.76 0 0 212.46 -212.68 0 0 212.29 -212.71 0 0 212.41 -212.8 0 0 212.76 212.8 0 0 212.42 212.71 0 0 212.38 212.68 0 0 212.33 212.76 0 0 -212.33 212.71 0 0 -212.38 212.76 0 0 -212.42 212.76 0 0 -212.76zm-212.76 0.3l0 212.16 -212.76 0 0 -212.16 212.76 0zm-2768.1 -1276.16l0 0.38 -212.71 0 0 -211.02 -212.71 0 0 -2 0 -210.76 0 -2 212.71 0 0 2 0 210.64 212.71 0 0 -210.29 0 -2.04 212.76 0 0 2.04 0 210.72 0 2 -212.76 0 0 210.34 0 0zm2342.63 851.41l0 212.04 -212.76 0 0 -212.04 212.76 0zm0 212.46l212.71 0 0 211.99 -212.71 0 0 -211.99zm-425.43 0l212.68 0 0 211.99 -212.68 0 0 -211.99zm-425.51 -212.71l-212.71 0 0 212.71 212.71 0 0 -212.71zm850.95 425.01l0 212.16 -212.76 0 0 -212.16 212.76 0zm0 212.46l212.71 0 0 212.08 -212.71 0 0 -212.08zm-425.43 -212.46l0 212.16 -212.71 0 0 -212.16 212.71 0zm0 212.46l212.68 0 0 212.08 -212.68 0 0 -212.08zm425.43 212.42l0 211.99 -212.76 0 0 -211.99 212.76 0zm-850.95 -0.34l-212.71 0 0 212.71 212.71 0 0 -212.71zm425.51 424.75l-212.71 0 0 212.46 -212.8 0 0 212.29 -212.71 0 0 212.46 0 0.38 0 212.03 0 0.3 0 212.46 212.71 0 0 -212.46 212.8 0 0 -212.33 212.71 0 0 -212.46 212.68 0 0 -212.67 -212.68 0 0 -212.46zm425.43 637.21l-212.76 0 0 212.41 -212.68 0 0 212.76 212.68 0 212.76 0 212.71 0 0 -212.76 -212.71 0 0 -212.41zm-2129.87 -1486.5l-212.76 0 0 -212.29 -212.71 0 0 211.99 -212.71 0 0 212.04 212.71 0 0 212.46 0 0 212.71 0 0 -212.03 212.76 0 0 -212.16zm-212.76 1911.67l212.76 0 0 -212.76 -212.76 0 0 -212.76 -212.71 0 0 0.38 0 0 0 212.08 -212.71 0 0 212.71 212.71 0 0 -212.04 212.71 0 0 212.38zm-4460.09 -3610.89l0 -2.04 -212.71 0 0 2.04 0 210.29 -212.71 0 0 -210.64 0 -2 -212.67 0 0 2 0 210.76 0 2 212.63 0 0 211.02 212.76 0 0 -0.38 0 0 0 -210.34 212.71 0 0 -2 0 -210.72zm850.95 -2.04l-212.76 0 0 2.04 0 210.72 0 1.44 -212.68 0 0 212.41 -212.67 0 0 212.38 -212.84 0 0 212.46 -212.71 0 0 211.99 -212.71 0 0 -0.04 0 -212.33 -212.67 0 0 -212.38 -212.84 0 0 -212.51 -212.67 0 0 -212.37 -212.72 0 0 -1.36 0 -210.76 0 -2 -212.76 0 -212.76 0 0 2 0 210.76 0 1.36 0 0.63 0 212.12 212.76 0 0 212.42 212.76 0 0 212.08 -212.76 0 0 212.33 -212.76 0 0 212.38 0 0.46 0 211.99 0 0.3 0 212.41 212.76 0 0 -212.41 212.76 0 0 -212.29 212.72 0 0 -212.46 212.67 0 0 211.99 0 0.46 0 211.99 -212.67 0 0 212.42 -212.72 0 0 212.76 212.72 0 0 212.38 212.67 0 0 212.03 0 0.3 0 212.12 -212.67 0 0 -212.42 -212.72 0 0 -212.38 -212.76 0 0 -212.46 -212.76 0 0 212.46 0 0.34 0 212.03 0 0.3 0 212.41 212.76 0 0 212.46 212.76 0 0 212.04 -212.76 0 0 212.37 -212.76 0 0 212.46 0 0.29 0 212.42 212.76 0 212.76 0 0 -212.42 212.72 0 0 -212.41 212.67 0 0 -212.46 212.84 0 0 -212.29 212.67 0 0 -212.04 212.71 0 0 212.33 212.71 0 0 212.38 212.84 0 0 212.46 212.67 0 0 212.33 212.68 0 0 212.46 212.76 0 212.76 0 0 -212.46 0 -0.3 0 -212.41 -212.76 0 0 -212.46 -212.76 0 0 -211.99 212.76 0 0 -212.46 212.76 0 0 -212.33 0 -0.38 0 -211.99 0 -0.34 0 -212.38 -212.76 0 0 212.38 -212.76 0 0 212.33 -212.68 0 0 212.41 -212.67 0 0 -212.03 0 -0.38 0 -211.99 212.67 0 0 -212.42 212.68 0 0 -212.76 -212.68 0 0 -212.41 -212.67 0 0 -212.04 0 -0.26 0 -212.12 212.67 0 0 212.38 212.68 0 0 212.46 212.76 0 0 212.29 212.76 0 0 -212.29 0 -0.42 0 -212.04 0 -0.26 0 -212.46 -212.76 0 0 -212.33 -212.76 0 0 -212.08 212.76 0 0 -212.41 212.76 0 0 -212.21 0 -0.55 0 -1.44 0 -210.72 0 -2.04 -212.76 0zm1279 0l212.72 0 0 2.04 0 210.72 0 2 -212.72 0 0 212.21 -212.71 0 0 -212.21 -212.76 0 0 -2 0 -210.72 0 -2.04 212.76 0 212.71 0zm-1063.7 2.04l0 -2.04 212.71 0 0 2.04 0 210.72 0 1.44 212.8 0 0 212.41 212.71 0 0 212.38 212.76 0 0 212.76 -212.76 0 0 212.38 -212.71 0 0 -212.38 -212.8 0 0 -212.38 -212.71 0 0 -212.41 0 -0.34 0 -211.86 0 -0.55 0 -1.44 0 -210.72zm-3834.3 -2.34l-212.76 0 0 2 0 210.76 0 2 212.76 0 0 212.12 212.67 0 0 -212.12 212.71 0 0 -2 0 -210.76 0 -2 -212.71 0 -212.67 0zm1063.66 2l0 -2 -212.76 0 0 2 0 210.76 0 1.36 -212.76 0 0 212.37 -212.76 0 0 212.51 -212.71 0 0 212.76 212.71 0 0 212.33 212.76 0 0 -212.33 212.76 0 0 -212.46 212.76 0 0 -212.42 0 -0.38 0 -211.74 0 -0.63 0 -1.36 0 -210.76zm4472.45 1699.26l-212.67 0 0 -212.41 -212.71 0 0 -212.29 -212.72 0 0 -212.46 -212.71 0 0 212.46 -212.76 0 0 212.29 -212.71 0 0 212.41 -212.8 0 0 212.76 212.8 0 0 212.42 212.71 0 0 212.38 212.76 0 0 212.33 212.71 0 0 -212.33 212.72 0 0 -212.38 212.71 0 0 -212.42 212.67 0 0 -212.76zm-212.67 0.3l0 212.16 -212.71 0 0 -212.16 212.71 0zm-425.43 -424.75l0 212.04 -212.71 0 0 -212.04 212.71 0zm0 212.46l212.72 0 0 211.99 -212.72 0 0 -211.99zm-425.47 0l212.76 0 0 211.99 -212.76 0 0 -211.99zm-425.51 -212.71l-212.71 0 0 212.71 212.71 0 0 -212.71zm850.99 425.01l0 212.16 -212.71 0 0 -212.16 212.71 0zm0 212.46l212.72 0 0 212.08 -212.72 0 0 -212.08zm-425.47 -212.46l0 212.16 -212.71 0 0 -212.16 212.71 0zm0 212.46l212.76 0 0 212.08 -212.76 0 0 -212.08zm425.47 212.42l0 211.99 -212.71 0 0 -211.99 212.71 0zm-850.99 -0.34l-212.71 0 0 212.71 212.71 0 0 -212.71zm425.51 424.75l-212.71 0 0 212.46 -212.8 0 0 212.29 -212.71 0 0 212.46 0 0.38 0 212.03 0 0.3 0 212.46 212.71 0 0 -212.46 212.8 0 0 -212.33 212.71 0 0 -212.46 212.76 0 0 -212.67 -212.76 0 0 -212.46zm425.47 637.21l-212.71 0 0 212.41 -212.76 0 0 212.76 212.76 0 212.71 0 212.72 0 0 -212.76 -212.72 0 0 -212.41zm-2342.67 -1274.34l212.71 0 0 -212.16 -212.71 0 0 -212.29 -212.71 0 0 211.99 -212.67 0 0 212.04 212.67 0 0 212.46 0 0 212.71 0 0 -212.03zm0 1699.51l212.71 0 0 -212.76 -212.71 0 0 -212.76 -212.71 0 0 0.38 -0.04 0 0 212.08 -212.63 0 0 212.71 212.67 0 0 -212.04 212.71 0 0 212.38zm-3193.53 -1912.27l212.71 0 0 -212.42 212.72 0 0 -212.46 212.76 0 0 -212.38 212.67 0 0 212.38 212.71 0 0 212.46 212.76 0 0 212.42 212.76 0 0 212.76 -212.76 0 0 212.38 -212.76 0 0 212.33 -212.71 0 0 212.41 -212.67 0 0 -212.41 -212.76 0 0 -212.33 -212.72 0 0 -212.38 -212.71 0 0 -212.76zm212.71 0.29l0 212.04 212.72 0 0 -212.04 -212.72 0zm425.48 -424.71l0 211.99 212.67 0 0 -211.99 -212.67 0zm0 212.29l-212.76 0 0 212.12 212.76 0 0 -212.12zm425.38 0l-212.71 0 0 212.12 212.71 0 0 -212.12zm425.51 -212.76l212.76 0 0 212.76 -212.76 0 0 -212.76zm-850.9 425.17l0 212.04 212.67 0 0 -212.04 -212.67 0zm0 212.46l-212.76 0 0 212.03 212.76 0 0 -212.03zm425.38 -212.46l0 212.04 212.76 0 0 -212.04 -212.76 0zm0 212.46l-212.71 0 0 212.03 212.71 0 0 -212.03zm-425.38 212.38l0 212.03 212.67 0 0 -212.03 -212.67 0zm850.9 -0.34l212.76 0 0 212.68 -212.76 0 0 -212.68zm-425.51 424.79l212.76 0 0 212.33 212.76 0 0 212.46 212.76 0 0 212.37 0 0.34 0 212.12 0 0.29 0 212.42 -212.76 0 0 -212.42 -212.76 0 0 -212.41 -212.76 0 0 -212.46 -212.71 0 0 -212.71 212.71 0 0 -212.33zm-425.38 637.17l212.67 0 0 212.46 212.71 0 0 212.71 -212.71 0 -212.67 0 -212.76 0 0 -212.71 212.76 0 0 -212.46z"/>
 </g>
</svg>
